<?xml version="1.0" encoding="UTF-8" standalone="no"?>
<!-- Created with Inkscape (http://www.inkscape.org/) -->

<svg
   xmlns:dc="http://purl.org/dc/elements/1.1/"
   xmlns:cc="http://creativecommons.org/ns#"
   xmlns:rdf="http://www.w3.org/1999/02/22-rdf-syntax-ns#"
   xmlns:svg="http://www.w3.org/2000/svg"
   xmlns="http://www.w3.org/2000/svg"
   xmlns:xlink="http://www.w3.org/1999/xlink"
   xmlns:sodipodi="http://sodipodi.sourceforge.net/DTD/sodipodi-0.dtd"
   xmlns:inkscape="http://www.inkscape.org/namespaces/inkscape"
   width="32px"
   height="32px"
   id="svg5250"
   version="1.1"
   inkscape:version="0.48.0 r9654"
   sodipodi:docname="Neues Dokument 19">
  <defs
     id="defs5252">
    <linearGradient
       inkscape:collect="always"
       xlink:href="#linearGradient5970"
       id="linearGradient4791"
       gradientUnits="userSpaceOnUse"
       gradientTransform="matrix(2.1323706,0,-0.2389802,1.9085433,-7.7381146,-266.60078)"
       x1="32"
       y1="149"
       x2="32"
       y2="142.73804" />
    <linearGradient
       id="linearGradient5970"
       inkscape:collect="always">
      <stop
         id="stop5972"
         offset="0"
         style="stop-color:#ffffff;stop-opacity:1;" />
      <stop
         id="stop5974"
         offset="1"
         style="stop-color:#ffffff;stop-opacity:0;" />
    </linearGradient>
    <linearGradient
       inkscape:collect="always"
       xlink:href="#linearGradient5652"
       id="linearGradient4789"
       gradientUnits="userSpaceOnUse"
       gradientTransform="matrix(2.1323706,0,-0.2389802,1.9085433,-492.20788,-535.7054)"
       x1="274"
       y1="296"
       x2="274"
       y2="287" />
    <linearGradient
       inkscape:collect="always"
       id="linearGradient5652">
      <stop
         style="stop-color:#ffffff;stop-opacity:1"
         offset="0"
         id="stop5654" />
      <stop
         style="stop-color:#c5c5c5;stop-opacity:1"
         offset="1"
         id="stop5656" />
    </linearGradient>
    <radialGradient
       inkscape:collect="always"
       xlink:href="#linearGradient5803"
       id="radialGradient4787"
       gradientUnits="userSpaceOnUse"
       gradientTransform="matrix(2.2922574,0,-0.6634591,5.2985131,-105.40668,-1249.7855)"
       cx="270.19836"
       cy="286.27225"
       fx="270.19836"
       fy="286.27225"
       r="3.0674951" />
    <linearGradient
       id="linearGradient5803">
      <stop
         style="stop-color:#d3d3d3;stop-opacity:1;"
         offset="0"
         id="stop5805" />
      <stop
         style="stop-color:#5b5b5b;stop-opacity:1;"
         offset="1"
         id="stop5807" />
    </linearGradient>
    <radialGradient
       r="3.0674951"
       fy="286.27225"
       fx="270.19836"
       cy="286.27225"
       cx="270.19836"
       gradientTransform="matrix(2.2922574,0,-0.6634591,5.2985131,-413.09181,-1514.6271)"
       gradientUnits="userSpaceOnUse"
       id="radialGradient5330"
       xlink:href="#linearGradient5803"
       inkscape:collect="always" />
  </defs>
  <sodipodi:namedview
     id="base"
     pagecolor="#ffffff"
     bordercolor="#666666"
     borderopacity="1.0"
     inkscape:pageopacity="0.0"
     inkscape:pageshadow="2"
     inkscape:zoom="11.197802"
     inkscape:cx="16"
     inkscape:cy="16"
     inkscape:current-layer="layer1"
     showgrid="true"
     inkscape:grid-bbox="true"
     inkscape:document-units="px"
     inkscape:window-width="1280"
     inkscape:window-height="745"
     inkscape:window-x="-1"
     inkscape:window-y="17"
     inkscape:window-maximized="1" />
  <metadata
     id="metadata5255">
    <rdf:RDF>
      <cc:Work
         rdf:about="">
        <dc:format>image/svg+xml</dc:format>
        <dc:type
           rdf:resource="http://purl.org/dc/dcmitype/StillImage" />
        <dc:title></dc:title>
      </cc:Work>
    </rdf:RDF>
  </metadata>
  <g
     id="layer1"
     inkscape:label="Layer 1"
     inkscape:groupmode="layer">
    <path
       inkscape:connector-curvature="0"
       style="font-size:72.53502655px;font-style:normal;font-weight:normal;line-height:125%;fill:none;stroke:url(#radialGradient5330);stroke-width:1.99999988;stroke-linecap:butt;stroke-linejoin:round;stroke-miterlimit:4;stroke-opacity:1;stroke-dasharray:none;display:inline;font-family:Bitstream Vera Sans"
       d="m 19.621075,6.1036315 c -0.97483,3e-5 -1.40907,-0.42486 -1.30264,-1.27463 0.0617,-0.49313 0.25098,-0.88766 0.5678,-1.18358 0.3262,-0.30347 0.72668,-0.4552 1.20137,-0.45523 0.97484,3e-5 1.40858,0.42868 1.30125,1.28601 -0.0665,0.53112 -0.2657,0.93703 -0.59752,1.21775 -0.32244,0.27314 -0.71251,0.40971 -1.17026,0.40968 m -6.17621,6.0246505 0.0165,-1.962371 6.80123,0 -4.01679,11.165381 c -0.59756,1.65609 -1.05522,3.02644 -1.16804,3.92773 -0.14675,1.17167 0.20786,1.7575 1.06381,1.7575 0.74263,0 1.70518,-0.29856 2.88764,-0.89567 l 0.57164,1.01396 c -1.9595,1.37442 -3.78888,2.06165 -5.48816,2.06165 -0.95664,0 -1.69195,-0.30981 -2.20595,-0.92942 -0.51402,-0.61964 -0.7118,-1.40262 -0.59327,-2.34896 0.12977,-1.03647 0.74881,-2.94196 1.65231,-5.53314 l 2.22919,-5.89082 c 0.13465,-0.37176 0.2168,-0.67596 0.24643,-0.91256 0.12132,-0.96884 0.0867,-1.45326 -1.48676,-1.45328 l -0.50978,0"
       id="path4779"
       sodipodi:nodetypes="cssssscccccssccsssccscc" />
    <path
       inkscape:connector-curvature="0"
       sodipodi:nodetypes="cssssscccccssccsssccscc"
       id="path4781"
       d="m 19.841695,5.8335615 c -0.83593,2e-5 -1.20829,-0.36433 -1.11704,-1.09299 0.053,-0.42289 0.21524,-0.7612 0.48689,-1.01496 0.27973,-0.2602 0.62313,-0.39033 1.03021,-0.39035 0.83591,2e-5 1.20786,0.36759 1.1158,1.10277 -0.057,0.45542 -0.22781,0.80351 -0.51237,1.04422 -0.27647,0.23423 -0.61096,0.35133 -1.00349,0.35131 m -6.38523,6.2020605 0.005,-1.869691 6.80121,0 -4.01677,11.165361 c -0.5976,1.65609 -1.05521,3.02645 -1.16806,3.92772 -0.14676,1.17168 0.20788,1.75751 1.06379,1.75751 0.74265,0 1.70521,-0.29855 2.88765,-0.89567 l 0.57166,1.01396 c -1.95951,1.37443 -3.78888,2.06166 -5.48816,2.06166 -0.95665,0 -1.69194,-0.3098 -2.20596,-0.92944 -0.51401,-0.61962 -0.71177,-1.4026 -0.59326,-2.34895 0.12978,-1.03646 0.74882,-2.94196 1.6523,-5.53314 l 2.24081,-5.98344 c 0.13466,-0.3718 0.21679,-0.67597 0.24642,-0.91256 0.12131,-0.96885 0.0867,-1.45329 -1.48677,-1.45332 l -0.50975,0"
       style="font-size:72.53502655px;font-style:normal;font-weight:normal;line-height:125%;fill:url(#linearGradient4789);fill-opacity:1;stroke:none;display:inline;font-family:Bitstream Vera Sans" />
    <path
       inkscape:connector-curvature="0"
       sodipodi:nodetypes="cccsccccc"
       id="path4783"
       d="m 13.438475,10.151821 0.0227,1.907451 0.53309,0 c 1.57341,10e-6 1.5574,0.46258 1.43608,1.4314 -0.0296,0.2366 -0.11062,0.52287 -0.24529,0.89462 l -1.29038,3.38691 3.66501,0 2.68099,-7.620381 -6.80217,0 z"
       style="font-size:72.53502655px;font-style:normal;font-weight:normal;line-height:125%;fill:url(#linearGradient4791);fill-opacity:1;stroke:none;display:inline;font-family:Bitstream Vera Sans" />
    <path
       inkscape:connector-curvature="0"
       style="font-size:72.53502655px;font-style:normal;font-weight:normal;line-height:125%;fill:#f8f8f8;fill-opacity:1;stroke:none;display:inline;font-family:Bitstream Vera Sans"
       d="m 19.621055,6.1036215 c -0.97483,4e-5 -1.40907,-0.42486 -1.30265,-1.27461 0.0617,-0.49314 0.251,-0.88767 0.56779,-1.1836 0.32622,-0.30344 0.72667,-0.4552 1.20141,-0.45521 0.9748,1e-5 1.40855,0.42867 1.3012,1.286 -0.0665,0.5311 -0.26566,0.93703 -0.59751,1.21774 -0.32241,0.27316 -0.71248,0.40972 -1.17024,0.40968"
       id="path4785"
       sodipodi:nodetypes="csssssc" />
    <path
       transform="translate(-307.68513,-264.84163)"
       sodipodi:type="inkscape:offset"
       inkscape:radius="-0.50943732"
       inkscape:original="M 327.9375 268.1875 C 327.53042 268.18752 327.18598 268.30231 326.90625 268.5625 C 326.6346 268.81626 326.45919 269.17085 326.40625 269.59375 C 326.315 270.32241 326.69532 270.68751 327.53125 270.6875 C 327.92378 270.68752 328.25479 270.54673 328.53125 270.3125 C 328.81581 270.07179 328.97421 269.73667 329.03125 269.28125 C 329.12331 268.54607 328.77341 268.18753 327.9375 268.1875 z M 321.15625 275 L 321.15625 276.875 L 321.65625 276.875 C 323.22968 276.87503 323.2463 277.3749 323.125 278.34375 C 323.09537 278.58034 323.04091 278.8782 322.90625 279.25 L 320.65625 285.21875 C 319.75277 287.80993 319.12979 289.71355 319 290.75 C 318.88149 291.69635 319.07975 292.47412 319.59375 293.09375 C 320.10777 293.71339 320.85586 294.03126 321.8125 294.03125 C 323.51178 294.03125 325.32175 293.34318 327.28125 291.96875 L 326.71875 290.96875 C 325.53631 291.56587 324.55514 291.84375 323.8125 291.84375 C 322.95659 291.84375 322.60325 291.26542 322.75 290.09375 C 322.86285 289.19248 323.33991 287.8436 323.9375 286.1875 L 327.9375 275 L 321.15625 275 z "
       style="font-size:72.53502655px;font-style:normal;font-weight:normal;line-height:125%;opacity:0.35;fill:none;stroke:#ffffff;stroke-width:1px;stroke-linecap:butt;stroke-linejoin:miter;stroke-opacity:1;display:inline;font-family:Bitstream Vera Sans"
       id="path4795"
       d="m 327.9375,268.6875 c -0.31133,2e-5 -0.50576,0.081 -0.6875,0.25 -0.1786,0.16683 -0.30368,0.39865 -0.34375,0.71875 -0.0335,0.26733 0.0103,0.35565 0.0625,0.40625 0.0522,0.0506 0.2187,0.125 0.5625,0.125 0.2707,10e-6 0.45599,-0.0803 0.65625,-0.25 0.17773,-0.15034 0.29733,-0.34815 0.34375,-0.71875 0.0349,-0.2785 -0.0196,-0.36309 -0.0625,-0.40625 -0.0429,-0.0432 -0.18613,-0.12499 -0.53125,-0.125 z m -6.28125,6.8125 0,0.875 c 0.42033,10e-6 0.77044,0.0118 1.0625,0.0937 0.29206,0.082 0.54561,0.23928 0.71875,0.46875 0.34629,0.45895 0.24985,0.97076 0.1875,1.46875 -0.0326,0.26065 -0.10065,0.61889 -0.25,1.03125 l -2.25,5.9375 c -0.005,0.0136 0.005,0.0176 0,0.0312 -0.89414,2.5661 -1.51123,4.49774 -1.625,5.40625 -0.10553,0.84269 0.0786,1.46081 0.5,1.96875 0.41361,0.49859 0.96871,0.75001 1.8125,0.75 1.44516,0 3.04578,-0.61061 4.78125,-1.75 L 326.5,291.625 c -1.02434,0.46838 -1.93135,0.71875 -2.6875,0.71875 -0.5427,0 -1.07187,-0.20915 -1.34375,-0.65625 -0.27188,-0.4471 -0.29968,-1.01013 -0.21875,-1.65625 0.12627,-1.00843 0.62563,-2.3564 1.21875,-4 l 0,-0.0312 3.75,-10.5 -5.5625,0 z" />
  </g>
</svg>
