<?xml version="1.0" encoding="UTF-8" standalone="no"?>
<!DOCTYPE svg PUBLIC "-//W3C//DTD SVG 1.0//EN"
"http://www.w3.org/TR/2001/REC-SVG-20010904/DTD/svg10.dtd">
<!-- Created with Inkscape (http://www.inkscape.org/) -->
<svg
   xmlns="http://www.w3.org/2000/svg"
   xmlns:xlink="http://www.w3.org/1999/xlink"
   version="1.0"
   x="0.0000000"
   y="0.0000000"
   width="60.000000"
   height="60.000000"
   viewBox="0 0 128 128"
   id="svg1"
   xml:space="preserve">
  <defs
     id="defs254" />
  <metadata
     id="metadata3">
		<ns:sfw
   id="sfw5">
			<ns:slices
   id="slices7" />

			<ns:optimizationSettings
   id="optimizationSettings9">
				<ns:targetSettings
   fileFormat="PNG24Format"
   targetSettingsID="0"
   id="targetSettings11">
					
						<ns:PNG24Format
   transparency="true"
   interlaced="false"
   noMatteColor="false"
   matteColor="#FFFFFF"
   filtered="false"
   includeCaption="false"
   id="PNG24Format13">
						</ns:PNG24Format>

				</ns:targetSettings>

			</ns:optimizationSettings>

			<ns:sliceSourceBounds
   y="0"
   x="0"
   width="128"
   height="128"
   bottomLeftOrigin="true"
   id="sliceSourceBounds18" />

		</ns:sfw>

<xpacket
   id="xpacket21" />
<x:xmpmeta
   x:xmptk="XMP toolkit 3.0-29, framework 1.6"
   id="xmpmeta22">

<metadata
   id="metadata255">
  <rdf:RDF
     id="RDF24">

 <rdf:Description
   rdf:about="uuid:cc334bcf-f38c-47b9-b470-6dabc9899722"
   id="Description26">
  <pdf:Producer
   id="Producer28">Adobe PDF library 6.66</pdf:Producer>

 </rdf:Description>


 <rdf:Description
   rdf:about="uuid:cc334bcf-f38c-47b9-b470-6dabc9899722"
   id="Description32">
 </rdf:Description>


 <rdf:Description
   rdf:about="uuid:cc334bcf-f38c-47b9-b470-6dabc9899722"
   id="Description35">
 </rdf:Description>


 <rdf:Description
   rdf:about="uuid:cc334bcf-f38c-47b9-b470-6dabc9899722"
   id="Description38">
  <xap:CreateDate
   id="CreateDate40">2005-02-15T10:37:33+02:00</xap:CreateDate>

  <xap:ModifyDate
   id="ModifyDate43">2005-02-15T09:37:44Z</xap:ModifyDate>

  <xap:CreatorTool
   id="CreatorTool46">Illustrator</xap:CreatorTool>

  <xap:MetadataDate
   id="MetadataDate49">2005-02-15T10:37:33+01:00</xap:MetadataDate>

  <xap:Thumbnails
   id="Thumbnails52">
   <rdf:Alt
   id="Alt54">
    <rdf:li
   rdf:parseType="Resource"
   id="li56">
     <xapGImg:format
   id="format58">JPEG</xapGImg:format>

     <xapGImg:width
   id="width61">256</xapGImg:width>

     <xapGImg:height
   id="height64">256</xapGImg:height>

     <xapGImg:image
   id="image67">/9j/4AAQSkZJRgABAgEASABIAAD/7QAsUGhvdG9zaG9wIDMuMAA4QklNA+0AAAAAABAASAAAAAEA
AQBIAAAAAQAB/+4ADkFkb2JlAGTAAAAAAf/bAIQABgQEBAUEBgUFBgkGBQYJCwgGBggLDAoKCwoK
DBAMDAwMDAwQDA4PEA8ODBMTFBQTExwbGxscHx8fHx8fHx8fHwEHBwcNDA0YEBAYGhURFRofHx8f
Hx8fHx8fHx8fHx8fHx8fHx8fHx8fHx8fHx8fHx8fHx8fHx8fHx8fHx8fHx8f/8AAEQgBAAEAAwER
AAIRAQMRAf/EAaIAAAAHAQEBAQEAAAAAAAAAAAQFAwIGAQAHCAkKCwEAAgIDAQEBAQEAAAAAAAAA
AQACAwQFBgcICQoLEAACAQMDAgQCBgcDBAIGAnMBAgMRBAAFIRIxQVEGE2EicYEUMpGhBxWxQiPB
UtHhMxZi8CRygvElQzRTkqKyY3PCNUQnk6OzNhdUZHTD0uIIJoMJChgZhJRFRqS0VtNVKBry4/PE
1OT0ZXWFlaW1xdXl9WZ2hpamtsbW5vY3R1dnd4eXp7fH1+f3OEhYaHiImKi4yNjo+Ck5SVlpeYmZ
qbnJ2en5KjpKWmp6ipqqusra6voRAAICAQIDBQUEBQYECAMDbQEAAhEDBCESMUEFURNhIgZxgZEy
obHwFMHR4SNCFVJicvEzJDRDghaSUyWiY7LCB3PSNeJEgxdUkwgJChgZJjZFGidkdFU38qOzwygp
0+PzhJSktMTU5PRldYWVpbXF1eX1RlZmdoaWprbG1ub2R1dnd4eXp7fH1+f3OEhYaHiImKi4yNjo
+DlJWWl5iZmpucnZ6fkqOkpaanqKmqq6ytrq+v/aAAwDAQACEQMRAD8A9U4q7FXYq7FXYq7FXYq7
FXYq7FXYq7FXYq7FXYq7FXYq7FXYq7FXYq7FXYq7FXYq7FXYq7FXYq7FXYq7FXYq7FXYq7FXYq7F
XYq7FXYq7FXYq7FXYq7FXYq7FXYq7FXYq7FUm8x+b/L/AJcgEuq3awu4rFbr8Uz/AOqg3+np75Rn
1MMQuRc/Q9m59UaxxvvPQfFiT/mnrt21dH8rzy25PwTXkyWxYf6hB/4lmCe0Jy+iBrzNO6Hs/hh/
e54iXdGJl9v7Ef5e/M6G91SHSNa06XRtRuDS15sJYZW/lWQBfiPYU9q1y3DrxKXDMcMj8nG1vYJx
4zlxTGWEefQj4M3zYPPuxV2KuxV2KuxV2KuxV2KuxV2KuxV2KuxV2KuxV2KuxV2KuxV2KuxV2Kux
V2KuxV2KuxVJ/N3mS38ueX7rVZgHMK0giJp6krbIv39fbKNTnGKBkXO7N0MtVnjiHXme4dXz9b+Y
PW1GXWdTkFzq1w3JpWpSMdlQdFoNts5mOa5cct5F9Lno+GAxYxw449O/3qln5xvhf3Es5ZYLhVa2
5VA4ISlV+ZB+nDHUniJPIscvZkOACPOPP47rNd8yC9sgFcieB1mt5AfiV1PUH5Y5s/EPMMtJofDn
y2Io+59H6Xdm80yzvD1uYI5j/s0DfxzqccuKIPeHyzUY+DJKP82RHyKJybS7FXYq7FXYq7FXYq7F
XYq7FXYq7FXYq7FXYq7FXYq7FXYq7FUs1HzR5b00st/qdrbOu5jklQP9CV5H7soyanHD6pAfFzMH
Z+oy/RCUvcDXzY9d/nD+X9vUDUTOw/Zihlb8SoX8cxJdracfxX8C7TH7Ma6X8Fe8j9aXv+evkhWI
C3jAftCFaH73Byo9tYP6XyckeyGs/ofP9jX/ACvjyR/vu9/5FJ/1Ux/lrD/S+X7U/wCg/Wd8Pmf1
Iy2/On8vpjR76SCppWSCWn/CK+Wx7XwHrXwLjz9lddHlEH3SH6aT3T/PPk/UCBaaxaO5pSNpVRzX
wR+LfhmTDWYp8pB12bsnVYvqxz+V/aE8BBAINQdwRmS6545/zkHqj00jSlaiH1LqZa9SKJGf+J5o
u2cn0x+L3XsZpx+8ynyiPvP6HjeaJ7plPnS1ittL8qxoAGbSVlanX97PLJv9LnMzVRAjj/qfpLp+
y8hnkzk/6rXyjEfoYrmG7l9b+XEaPy9pcbfaS0gU/MRKM7XAKhH3B8U1xvPM/wBOX3pjlriuxV2K
uxV2KuxV2KuxV2KuxV2KuxV2KuxV2KuxV2KpP5h83+XfL0XPVb1IHYVSAfHK3+rGtWp79Mx9Rq8e
Ies197n6LszUao1iiT59Pm8v1/8AP65ctFoOnrEnQXN2eTEe0aEAfSxzR5+3Tyxx+J/U9jovYyI3
zzvyj+s/qDz3WfPHmzWC31/VJ5I26wo3pxf8i4+K/hmoza3Nk+qReo0vZGlwfRjiD38z8zugtO8v
67qf/HP0+5ux/NDE7qPmwFBlePT5J/TEn4ORn1uHD/eTjH3kMgtPyi8/3IDfoz0UP7U0sS/8LyLf
hmZDsrUH+GviHVZfabQw/jv3A/qpMF/Izzuygk2iE/smZqj7kIy8di5/6PzcQ+1+jH8/5ftaP5F+
df57P/ka/wDzRh/kXN/R+f7Ef6MNH3T+Q/WgLr8m/P8AAKrYpOB19KaKv3My5XLsnOOl/EOTj9qd
DLnMx98T+gFj+o+UPNWnVN7pN1Ei9ZDEzJ/wagr+OY09Jlhzifk7LB2ppsv0ZIn47/LmoaT5m8wa
OwOmajcWgBqUikYIT7pXifpGRxZ8kPpJDZqdDgz/AN5CMveN/nzRWvea9a8y3EF1q8yzXFvEIFkV
VSqhi1SFotav2GW5tRPKQZcw1aPs7FpYmOIVEm+9LMqctPvN1+l2+kRo3IWelWluadjwMhH/ACUz
J1M+Lh8ogOu7NwmAyE/xZZn7a/QlFhaSXt/bWcf95cypCnzkYKP15RCPFIDvc3NkGOEpnlEE/J9f
oioioooqgKo9htncAPiBNmy3ih2KuxV2KuxV2KuxV2KuxV2KuxV2KuxV2KuxVB6tq+maTZPe6lcJ
bWsf2pHNN/BR1YnsBvleXLHHHikaDfptLkzzEMYMpF4x5x/PDUrwyWnl1DY2u6m9cAzuPFRusY+8
/LOb1fbUpbY/SO/r+x9A7L9kceOpaj1y/m/wj39/3e955Y6drmv6iY7WGfUb6U8pGHKRjX9p3PT5
sc1EMeTLLYGUnqM2fDpsdyMYQHw+Q/U9K8u/kJeyhZtfvRbKdzaWtHkp4NIfgU/INm60/YcjvkNe
QeS13tlCO2CPF5y2Hy5/c9G0X8ufJmjhTa6ZFJMv/HxcD1pK+IL1C/7EDNxh7Pw4+Ud/Pd5TV9u6
vP8AVMgdw2H2fpZGAAAAKAbADM11DROKrScVWk4qtJxVaTiqSaz5Q8sayG/SWmwTu3Wbjwl/5GJx
f8cx8ulx5PqiC5+l7U1OD+7nIDu6fI7PEPzN8m6b5Y1a2i00yfVbuIycZWD8XVqEKaA0pTrXOc7Q
0kcMgI8i+jez3auTWYpHJXFE1sw7MB37iSTUmp2G/gNhirMfyj0k6j570+orHZ8ruTvT0h8B/wCR
hXM7s3HxZh5buj9pNT4Wjn3y9Pz5/Zb6WzrHyd2KuxV2KuxV2KuxV2KuxV2KuxV2KuxV2KuxVjHn
jz/pHlSz5Tn6xqEq1trFDRm7cmO/FK9/uzB1uuhgG+8ugdx2R2Ll1s/T6YDnL9XeXzz5l81a55m1
D61qMxkapEFulRHGD+zGn8ep75yOo1U80rkX1LQdnYdJj4cYrvPU+8/gM58kfkpfX4S+8xF7K0NG
SyXadx/l1/ux7fa+WbTRdjSn6snpHd1/Y852t7WQxXDT+uX87+Ee7v8Au972fSNF0rR7NbPTLVLW
3X9hBQk+LHqx9znR4sMMYqIoPAanV5c8+PJIykjMtcdonFVpOKrScVWk4qtJxVaTiq0nFVhOKvKv
z4sy1lpN6BtFLLCx/wCMiqw/5NnNJ21D0xk9t7GZankh3gH5bfpePZoHvnYqld5r2qaVrNlcaVdS
Wl5akzLNEaEE7AHxBAIIOxB3zM0xMbkObqu0YRykY5C49X0d+V/5yWXmRIdL1nhZ69QKjfZiuT/k
V+y/+R37eA3mj7QGT0y2l97w/bXs5PTDxMfqxde+Pv8ALz+b03Nk8w7FXYq7FXYq7FXYq7FXYq7F
XYq7FXYqw78xPzEsvKtl6UXGfWJ1/wBGtuyjp6klOijsP2vvI13aHaEcEaG8zyH6S77sPsOetnZ2
xDmf0Dz+589k635k1r/dl/qt9J82Zj9wVQPoA9s5L15p/wA6Un1H9zpMPSGOA/H45kvd/wAvfyq0
7y7HHf6gFu9bIBDneOA+EQP7X+X91O/U6DsyOH1S3n93u/W+bdt+0WTVEwx+nD9svf8Aq+bPs2rz
LWKtE4qtJxVaTiq0nFVpOKrScVWk4qsJxVaTirDfzX0/675KvCBWS0ZLlP8AYNRj/wAAzZgdp4+L
CfLd3/szn8PWx7pXH58vtp8+5yj6q7FWdaN+XWm+YrGO2ul9K4RaRXaD40IHJq/zKWNKHOqjoYnC
IHmB9r5ZLt7JDWTzR3gZcuhiNh7jQYD5m8s6z5Y1T6pfIY5FPO3uUrwkUHZ422/qM0GfTzxSqT6R
oO0MOsx8cDfeOo8i9q/J784P0r6Pl3zDN/uU+xY3zn/einSOQ/788D+1/rddzoNfxeif1dD3vEe0
Xs94V5sI9H8Uf5vmPL7vdy7Dm2eNdirsVdirsVdirsVdirsVdirsVY/5384WXlbRXvpqSXL1Sztq
0Mkn/NK9WOYmt1ccEOI8+gdp2R2XPWZhAbRH1HuH6+5813FxrPmTXDI/O91O/koqjcszbBVHZR27
AZxkpTzTvnKT61CGHSYaFQxwH4/HV9B/l3+Xll5VsfVl4z6xOo+s3PZQd/Sjr0Udz+19wHW9n6CO
CNneZ5n9AfL+3O2562dDbFHkP0nz+5mObF0LWKtE4qtJxVaTiq0nFVpOKrScVWk4qsJxVaTiqwnF
UJqNpHe2FzZS/wB3cxPC/wAnUqf15DJASiQerbgynHkjMc4kH5Plp0eOR4n+3GxRqbiqmhziZCjT
7bCQkAR1VbHh9fthJ9gyKD867fjmRowDljfK3A7XlMaXIYc+A/t+x755LshDY+r4gKp+fxN+JzsX
xxFeafLOl+Y9LfT9QSqn4oZl+3E/Z0P+dcpz4I5Y8MnO7P7QyaTIMmM+8dCO4vmnzN5d1TyzrL2F
3VZYzzt7hKgSJX4ZEP0fQc5jNglilRfW9Br8erxCcOR5juPcX0J+TH5oDzRp36J1SQfp+ySpc/8A
HzCNvUH+WvRx9Pc03mg1fiDhl9Q+1899o+xPys/Exj91L/Ynu93d8vf03Ni8w7FXYq7FXYq7FXYq
7FXYqpXV1b2ltLdXDiK3gRpJZG6KqipJ+QyMpCIJPIM8eOU5CMRcjsHzB57833PmjXpb5qpaR1js
YD+xEDsT/lN1bOI12rOfIZdOj7D2P2ZHR4BAfUd5HvP6h0et/k/+X66PYLrmoR/7lLxKwIw3ghbp
/s3G58Bt450HZOg8OPiS+o/YHiPaftrx5+DjP7uB3/pH9Q/b3PSc3LyTWKtE4qtJxVaTiq0nFVpO
KrScVWk4qsJxVaTiqwnFVhOKsd8++YP0H5Vvr5W43BT0bXx9WX4VI/1a8vozG1ebw8ZPV2fY+j/M
amED9N2fcP18nzjGvFAO/fOOL7CGpSypzXZkIYH5ZKBo2wyQEokHkXvv5eaot7oEZBrxAI+TDp+G
drjnxREu98U1OE4skoHnEkfJkxOTaWL+ffJ1p5p0V7ZqJfQ1exuCN1en2Sf5XpRvv7Zi6rTDLGuv
R2/Y3astHm4ucD9Q8v1jo+c7G/1nyz5gjuoC1pqmmzdG7OhoysO6noR3Gc5EyxzvlIPq2THi1WGj
6scw+v8AyX5ssPNXl211mz+ETDjPDWpimXaSM/I9PEUOdPgzDJESD5B2joZ6XMccunI946FPMucF
2KuxV2KuxV2KuxV2KvJPz183GC2h8tWr0e5AnvyOojB/dx/7JhyPyHjmg7b1dAYh13L3Hsf2ZxSO
okNo7R9/U/Dl/YxH8ofJa6/rpvbxOWmaaVkkU9JJTvHH7jbk33d81/ZOj8XJxH6Y/e7z2m7V/LYe
CB/eZPsHU/oH7H0TnXvlbWKtE4qtJxVaTiq0nFVpOKrScVWk4qsJxVaTiqwnFVhOKrCcVeL/AJ2a
/wDWtZs9BiasVkv1q7Hb1ZBSMH3VN/8AZZoe1824gOj3/shoqhLMf4th7hz+Z+55xLMsZQHq7BR9
OaQC3tCaXkAgg9DscCXo35MavT1dPkb4kLIB+IP8M6rszJxYq7ny/wBqNN4eq4ukxfxGx/Hm9XJz
YPNrCcVeQfnf5PDxL5ms0+OPjFqKqOq/Zjl+j7J+jwzUdpaf+MfF7n2R7Vo/lpnY7x/SP0/NKfyE
89nQfNI0i7kppeslYtz8Mdz0iffpyrwPzHhmP2fn4J8J5Sdv7UdmePg8SI9ePf3x6j9P9r6jzfvl
7sVdirsVdirsVdiqjfXtvY2U97ctwt7aNpZW8EQFmP3DIzmIxMjyDZhxSyTEI/VI0Pi+Udc1a817
XbrUZQXuL2UlYxuQCeKRr/qrRRnB5sssuQyPORfatJpoabDHGPpgP7T+l9LeR/LUflvy1aaaAPXC
+pduP2p33c170+yPYDO00WmGHEI9evvfI+19edXqJZP4eUf6o5fr96e5lOtaJxVaTiq0nFVpOKrS
cVWk4qtJxVYTiq0nFVhOKrCcVWE4qg9U1G203T7nULpuNvaxvNKe/FBU09/DIzkIgk9G3DhlkmIR
5yNPmK41C51S+u9Vuv8Aei/laZh2UMfhUewGwzjtRkM5kl9l0WmjhxRhHlEUgjZT36308VeFhHVa
d3B5N9yg5labTGUJS7h+Psdf2h2nHDmx4/58q/Hxr7VeCQSwpIP2gDmvkKNO5ibFpt5M1NtL81ws
DRLoCnhzTf8AVm37Jy1Lh73k/a3S8eATHOB+w7H9D6FSVZI1kU1VwGB9jvnRPnDROKoa+tLa9s5r
O6QSW9wjRTRnoVYUIyMoiQo8mzFlljmJxNSibD5W8y6Pc6Br93pshIe0lIik6FkPxRuKeKkHOZy4
jCZj3Ps+g1cdTgjkH8Q+3qPm+ufyw82jzV5L0/VHYG8C/V74A1pPF8Lk+HMUengc6HTZfEgD1fKO
2dD+V1MoD6ecfcf1cvgyrL3VuxV2KuxV2KuxV51+eOumw8ppp8bUm1SURkd/Sio8n48R9OaftrPw
YuEc5H7HqvZHR+JqvEPLGL+J2H6Xm/5O+X11bzlDNKvK201TdPUVBdSBEP8Agzy+jNN2Rg8TMCeU
d/1PW+1Gt8DSED6snp+HX7Nvi+jM7F8oaJxVaTiq0nFVpOKrScVWk4qtJxVYTiq0nFVhOKrCcVWE
4qtJxV5T+eXmTjZ2nlm3f99fsJ70D9m3jaqg/wCu4r/sc1Xamfhjw9713spoOPKcx5R2Hv6/Ife8
kvJ1trVpBtxFEHudhnOQjxGn0ScuEW9B/Lryz/occEycnnB9cHu0g+Ov+qm2dfpsIhjET8XyLtbX
nPqTMHaO0fh+3dgcljJpep6jo8pJfTriSJSe8fI8G/2Q3zmNXi4JkPqPZ2pGbDGY6i1C+eSFY7uL
+8tnWQfIHcZDTZDGYIbNbgGXFKB5EV830H5N1ZNS0C3nVuVFG/sRUHOxjIEWHxnLjMJGJ5xNJ0Tk
mtTZsVeO/n1oI/0DXol33tLoj6XiJ/4YV+WantLFyl8Hu/Y3W/XgP9Yfcf0fajf+cYvM7Qa1qXly
Vv3V7ELu2B6CWH4XA93Rq/7HI9m5KJj3t/tjo+LHHMOcTwn3Hl8j976NzcPnrsVdirsVdirsVfPv
556sbrzgtkD+7063SMr/AMWS/vWP/Asucl21l4s3D/NH7X0/2Q03BpOPrOR+Q2/WzX8h9HFt5Zud
TZaS6hOQreMUHwr/AMOXzZ9h4eHEZfzj934Lz/tjquPURx9IR+2X7Kelk5unkFpOKrScVWk4qtJx
VaTiq0nFVhOKrScVWE4qsJxVYTiq0nFUPeXcFpazXVw4jt4EaSaQ9FRByYn5AYCQBZZQgZyERuTs
+ZNW1q48wa7fa7OCPrTlbaM/sQJ8KL9w39985HWZzkmS+wdlaIafBGA6ff1QunWh1TX4bcDlb2dJ
ph2L/sL9/wDHMrszT8UrLrPaXtDwcBiPqlsP0/Z9733yhpot7X1mG4HBT4nqx+/bOlfMHmP5y6V+
jvONlq6LSDV4vQnI/wB/w0AJ+aFQPkc0fa2H+J7/ANktZcDiP8J+w/t+9iToroyNurAgj2OaEGnt
SLZz+Sutsn1jR5m+OFiq17g7qf1jOr7OzcWOu58v9p9H4Wo4xyn945/oL1hmzPebWE4qxv8AMHSh
qvk/VLQCsghM0Pjzh/eKB8+NMo1MOLGQ7TsXU+Dq8cunFR9x2eA/l3rzaH550TU+XCOG6jWdv+KZ
T6Uv/JNzmj08+GYL6l2tpvG02SHfE17xuPtfbudG+MuxV2KuxV2KuxV8o+dL83/m3V7smoku5Qh/
yFcqn/CqM4TWT480j/SL7V2Vh8PS4490B863+19H+RrAaf5O0e1pxZbWN3WlKPIvqP8A8MxzsdFj
4MMR5Pk/bGfxdXkl/TPyGw+wJ2TmU61aTiq0nFVpOKrScVWk4qsJxVaTiqwnFVhOKrCcVWk4qsJx
V5b+d3mYw6fB5atJKXOpUkuyOqWyHp/s2H4HxzWdp6jghwjmXq/Zbs7xMpyn6Y8vf+wfeHkdzPHZ
2jPSixrRF8T0AzmoxMi+jykIhmv5a+XZY4UkkWt1csJZSevN/sg/6q7n3zrtHh8OA7y+Tdua78xq
DR9Mdh+k/F7RBEkECQp9lBQe/vmU6ZiP5seXm1zyXeRwryvLKl7aU684QSQPdkLAe+Y+qx8cCHa9
javwNRE9Dsfj+14hY3S3VpFOP21qw8CNiPvzj5x4SQ+uwlxAFEaTqL6N5ms9QU8YpiIZj71+E5su
zM/DOi8/7SaHxtOSPqjuPh+x9D21ylxbRzoarIoYfTnTPlq5mxVTehBBFQdiDir5L12y/R+s39hQ
j6rcSwivhG5Ufqzm5w4ZEdz7Xpc/i4YT/nRB+YfcPlPUzqvlbSNTLcmvbK3ncnc8pIlZq+9TnQ45
XEHyfHdbi8PNOH82RH2prk3GdirsVdiqyeVYYJJm+zGrOe2yiuCRoWyhHikB3vj5RJc3KrWskzgV
/wApj7fPPPgLPvfdCRCPkA+vo0WKNI0FFRQqj2AoM9BAoU+FSkSbPVxOFC0nFVpOKrScVWk4qsJx
VaTiqwnFVhOKrCcVWk4qsJxVCalqFrp9jcX12/p21tG0srnsqip+nIzkIgk8g2YcUskxCO8pGnzT
qerXWuazea3d7S3j/uo/99wrsiD5KBnI6vOckyX2Hs3RR0+GMB0/BKG0+xOra3Hb8eVraEPMOzSH
7Cff/HMzszTcUrPJ1PtJ2l4GHhifXLYfpPw+97x5R0sW8HrMNwOKnxY/aP8ADOkfMGRE4qsY9sVf
OXmDRD5c836jo4XjZzN9c07sPSlNeI/1DVfozmO0sHBO31f2f13j4AT9Q2PvH6+aCvbcXFs8X7RF
UPgw3Ga6EqNu7nHiFPV/yq8xnUtCFtM3+k23wuD122P9c7DS5vEgD1fIO2NF+W1Eo/wnce4/q5M1
JzIdYtxV8zfmlbi28+6xGOjSpJ9MsSSH/iWaLVRrIX1bsHLxaLGfKvkSH1H+R12bv8qvL8prVYpY
t/CGeSIf8Qza6U3jDwHb0OHWZB5g/MAs6zIdQ7FXYq7FUHrX/HGv/wDmHl/4gcrzfQfcXI0n97D+
sPvfJ2jH/cxYf8xEX/ExnC4frHvD7Vq/7qf9U/c+tyc758NWk4qtJxVaTiq0nFVhOKrScVWE4qsJ
xVYTiq0nFVhOKrCcVeR/nP5nM0kXli0f4Txn1Mr4DeOI/wDEj/sc0vaupocA+L23sp2ZZOeQ8o/p
P6Pm8xupvQg+AVc/DEo7k9Ns0WOPEae7yTEI2We/l95YaGOJCKzu3KR+tZG6n5IM6/S4fDgB1fIe
19edVnMv4RtH3ft5vXYokhhSKMURBQZkOscTiqmzYq87/OTy697okWtWicr7R29RqdWt22kH+x2b
5VzA7Qw8cL7no/ZrXeDn4CfTP7+nz5PMYZUliWRN1cAj6c5UijT6gDYtH+U9XfQvMsU9aWt2eMo7
Bv7c23Zep4ZcJ5F5b2o7O8XD4kR6ob/Dr+t7rHIkkayIao4DKfY50b5quxV84fnPQfmBfe8cFf8A
kSuabWf3hfS/Zw/4HH3y+8voj/nHQk/lRpn/ABmuv+oh8z9H/dh5D2j/AMcl7o/c9LzKdG7FXYq7
FUJq6NJpV6i7s8EqqPcoRleUXA+5u0xrLE/0h975J0qRY9Us5G+yk8bN8g4OcLiNSHvfbdSLxyH9
E/c+uSc758MWk4qtJxVaTiqwnFVpOKrCcVWE4qsJxVaTiqwnFVhOKpR5m1+20LRbnUp6H0V/dR1o
XkOyIPmfw3ynPmGOBkXM7P0UtTmjjj15+Q6l86TXNzd3U99dv6l1dOZZnPixr9wzj8uQzkSX2LT4
I4oCERUQKRXlrS31LUlumWsMJ424PQv3b/Y5uOy9LZ4z0+95H2q7U4I+DE+qXP8Aq/t+57h5Z0xL
S0EtKFhSOvXj4/7I5vnz9OCcVU2bFVhOKpbfaxocKPHe3ttEjAq6zSxqCCNwQxyEskRzIcjFp8sj
cIyPuBeB3tvYabrl5p1jdR3dgHMllPE4kXg2/DkpO69PxzldbiEZnhNh9Y7J1M8mGJyAxn1BFb/t
5rLiESxFOh6qfAjpmJGVG3ZTjYp6D5P/ADJ0m20iO01eV47mD4ahGeoH+qDnS4e0sfAOI7vmut9m
NQMsvCAML23Hy+DIY/zJ8nOKm+K+zQzfwQ5b/KWHv+wuIfZrW/zL/wA6P63iP5qSNq3nO9v9PR7i
zZYVjmRSQ3GJQ1BSuxqM1+o1EJzJBe07G0mXDpYwmKlv95fSH/OPEDxflPpPPZnkumK9Cv8ApMi0
IP8Aq1za6P8Auw8T7Qn/AAyXw+4PSMyXSOxV2KuxVzKrKVYAqRQg7gg4qDT45vrd7S+uLZqh7eV4
z41Riv8ADOAnHhkR3PuuKYnAS/nAH5vrTT7xbzT7a7XdbiJJR8nUN/HO8xy4og94fD8+Pw5yj/NJ
HyVicm1LScVWE4qtJxVYTiqwnFVhOKrScVWE4qsJxVYTirxD80PNH6Z1kWFu/LT9OYrUdJJ+jN7h
fsj6fHOZ7T1XHPhH0x+99N9meyvAw+JMevJ9keg/Sf2MM9J7iVbZCF5/3jnoq9ycw9NhOSQDutfq
xgxGZ37h3noGcaDqvlLSI41u72NEUU4RhpW4jfj+7DfEx61zpRqcOKPCCNvi+Zy7M12qyHIYSuXf
6fvZJJ+Z4nWmi6Df3yjZZGQQQnw+M8/xGQPaA/hiS5MPZuQ/vMkI/aflsg5vMv5kXW0VrpmkIR9q
5mMzj/kUWH3rlUtbkPSIcuHYukjzOTJ7hX3/AK0vnHmOffVPOjRL3isYEj+dJAUb7xlMtTLrP5Ob
j7Pwj6MF/wBYk/Yk93aeQhU6nrGoam/7QubsEHr+yBy7+OUSzRPMyLn49PnH0xhD3RQn6T/K20r9
X0lJG8ZGnlr/AMGxXKzlj0i5A0uoP1ZPu/QEr1LVPLd3L6tjphtZOxgQBTT/ACf6UyjIDPkHNwHw
RU5g+/n80LFKkqcl+RB6g5hyjTs4yBFhF2eqS2BZkHJWpyFK9MnjmRyac2CM+ad2fnQKAJYvhPWq
gjMkagjmHWz7PjI+k7pvb+YfLt2KXFlbSE9S0SBvvoDlgzwlzAcaeizw+mUh8Si7WPTbeT615fvp
9GveoMMjNEx60dGJqPatPbJxERvAmJachySHDnjHLDzG/wAC9Q/Ljztc+YLa6stSRU1jTSq3Bj+x
Kjj4JV8K03H9aZt9DqjlBEvqi8h252VHTSjPH/dT5XzHkzLM90TsVdirsVfLH5n6cdO8+azDSiyT
m4XwIuAJdvpemcX2hj4c8h538932HsDP4uixnujX+l2/Q9w/K7VBqHkXSnrV7eM2zjw9Biij/gAD
nTdm5OLBHy2+T5x7Q6fwtbkH848X+m3+9lJOZzpVhOKrScVWE4qsJxVYTiq0nFVhOKqUs0caNJIw
SNRVnYgAD3JwEgc0xiZGgLLGtS/MPynZMU+ui6m6CK1BmJPgCvwf8NmHk7Qwx62fLd3On9n9Zl34
OEd8vT+37GO6/wCfNcudKujp2kzWMBjNb+7ZYmRTsSsZ6se1D1zCz9ozlA8MTHzLutB7PYYZY+Lk
jM39MRd+8/fs8qt47YsDPIVTuqCrH+AzQgDq97My/hCqr6BESzW8lw3X969B9yccsEojo48seU/x
Ae5FW/mKSE/7jdOjjcdHiiBb6Wpyy/HLJL6Y/Jw9RjwwF5cn+mNL31Xzjd9P3QPQs38BvmXHR6iX
PZ1OXtjs7FyPEfIE/qH2uXQPM93vPeyKD2RSB/wR45kQ7KP8UnX5favGP7vH86H6/vRMH5dyXBrM
8s7dwzlv+Ij+OZMOzMY52XW5fanUy+kRj8P1lNrX8sIRT/RR/sx/zWx/VmRHSYh/C67J21q588kv
ht91Jtbfl1BGBRY09hQf8RXLhjiOQDhT1OWf1SkfeSmEfkazH2nFfkx/42GTaGGeefJTaOw1WyrJ
ZSELdIB/duej99m/X880Hamjr1x5dX0D2X7Y44+BM+ofT5ju94+73MT5KR7HNI9qmeh6hZ20vo3y
GSzau67sh9hUVFeubPQ6/wAP0y3h9zzPbnYA1P7zF6co/wBl+3uPw93OtIvtdj1pLd5HdZJD60El
SFBNWIrUrTqMlqI45RMq+TmaWOXHMRBJHcWcx3M8f2JCPpzViRDt5QieYez/AJC6ZeMmqa5cV9O4
9O2gJ/a9OrOfkKqPvzfdj4z6pnrs8H7YZ4Awwx5i5H48v0vXM3bxLsVdirsVeF/85DaKYtU03WUX
4LmJraZh05xHktfdlc/dnOdt4qlGffs+h+xmqvHPEf4TxD4/2farfkFrgMWpaI7bqVvIBXsaRy/d
RPvy3sTNtKHxcf200m8Mw/qn7x+l66Tm+eEWk4qsJxVYTiqwnFVjNirGdY/MHy3p0v1ZJmv70mi2
lmPWct4VHwg+1a5hZtfigavil3Dd3Wk7A1OYcVcEP50th+tJ5tb8+6pX6tbQaDaHpLcn1binslKA
+zL9OYstVnnyAgPPcu0x9maHD9cpZpd0do/P9RSDU7XyzBIZPMWsz6tcqd4ZJCEB9oYyWX78w8gh
zySMj+OjudNLORWnxRxR7wN/9MeaAl876ZYQn9DaUIY+nq8FiBJ/ygGZvpyBz8MbjGh38m2OgOWf
BlyiU/5t2fl0YxrPmfVNWUR3DBYQa+mlQCfepNcwcuolPm7zS6DHh3jzXaJoTXzAyA8W+yOm3dj7
ZstB2cMg458ujzfb/tHLBPwsFcQ+o868vf3swsfy7qFb0RQ7hiAPxck/hm5x6PFDlEPG5+2NXl+r
JL4bfdSeW3kWBAPUZRT5t+HwjMkB1xJO5TODy1psI6E+woo/4UDFCKSwsYvsQID4kVP3muKqpIAo
Nh4YqtxV2KuxVZPDDPC8MyCSKRSsiMKgqdiCMEogiiyhOUJCUTRDyDzh5HutGma5tA0umOfgbqY6
/sv/AAOc1rez5YzxR3h9z6b2J7Qw1IEMh4cv2S93n5fJihdlPxCma2npm1cF+QUGSlOVN6eFcaWm
Z+Qvy91jzVeKeLW+lI3+k3xG1B1SOuzP+rvmXpNFLMe6Pe6XtftrFo4fzsh5R/Se4ff0fSelaXZa
Vp1vp9jGIrW2QJEg8B3PiSdyfHOqx4xCIiOQfKtRqJ5shnM3KSKybS7FXYq7FWI/mt5dbXfJV9BE
vK6tB9bthSpLwglgPdkLKPnmD2jg8TCR1G7u/Z7W/l9XEn6Zek/H9tPnbyN5iPl/zTY6kxIt1f07
ob7wyfC+w68QeQ9xnM6PP4WUS6dfc+l9saL8zpp4/wCKrHvHL9T6jDqyhlIZWFQRuCD3ztHxoilp
OKFhOKrCcVYnrv5habZ3BsNMjbVtV6C2t90Q/wDFkm4WnelfemYGfXwgeGPql5O+0PYGXLHxMh8L
F3y5n3BjOox6xqUTT+atWFnY9Tplmwjjp4SSH7Xy39jmBklOe+WVR7g7/TQwYDWmx8c/58tz8B0+
xK1836TpyNa+V9MVj9lrinFT/rSN8bfSchjne2GN+f7W7U4a9esy8PlzPwiP0BAyjzTrJJu7t1hP
WGD92nyLd/prmVHs+c/7yXwDqsvtBgxbafHZ/nT/AFftCLt/JttZ2r3t0BFbxDlJOw2A/wBd+/sB
mXHTYcI4qArqXVZO0tbrJiHFImX8I2H2fpYVq+oJeXRMKlLZKiJSakj+Zvc5zut1ZzS/ojk+h9i9
kR0eKueSX1H9A8gu0nTJLyZSVJjrQD+Y+GXdn6HxTxS+gfa4ntB22NLDggf3sv8AYjv/AFfN6r5W
8voiCWVRwHXwZh2H+SudOBT5eSSbPNlZOFCwnFVjNiqmTiq3FXYq7FXYq7FVskcciNHIodGFGVhU
EHxGKvnD81tYTTfN89hoDLHb2qKtyhCupmb4mAJ3+EEDr1rml1eDEZ8vk+gdiZdUNOJGZN8gd9nq
n/OOvkiPXtAufMnme1ju0ln9LS4WUhAkNRLIVB4uGc8fir9k5bpez8VcRF+91/bXbmqhLw4y4dt6
/X+p79DBDBEkMEaxRRjikaAKqgdgBsM2gAAoPIymZGybJX4WLsVdirsVdirsVfKn5o+VG8tebbq1
jTjY3J+s2JA29OQn4P8AYNVflTOP1+n8LKR0O4fX+we0PzWmjI/XH0y946/Hm9W/J7zcNY8uLp1w
9b/SwsTVO7w/7qb6AOJ+Xvm97L1PiY+E/VH7nh/ajs3wNR4kR6Mm/wAev62eE5s3mFjuqqWYgKBU
k7AAYpAt5X5g833nmO5ms9PuGsvL8TGOa6Q0luSOoQ/sp/mfDNFqNYcpMYmod/UvddndkQ0kRPIO
POdxHpH3+f4HekknmC00uP8AR2hWqmY/ap/xKR+pzGhLfgxCz+ObsM2IV42pnUB+KiEPb6HqerTL
PqMrTmvwqaiJfZVHXNjh7NH1ZTxHu6PO6z2kIBhpo+HH+d/Ef1M00fyOqqrSqEUdOY3+hOg+nNpG
IAoPMzySmbkSSe9O7z9AaBZNeXrKkcfR5PiYnsqL3PsBkMuaOOPFI0G7SaTJqJiGMcUvxzeQec/O
175iuQgBg02IkwW1dyf55KdWp92cvrdbLMe6Pc+odjdiQ0cb+rKeZ/QPL70m07TpbyUAAiMGhI6k
+A98dFojmNnaIR2323DRwob5TyH6T5fe9N8reWRQMyhUXZiOw/lX38TnVQgIihsA+V5csskjOZuR
5lmyqkaBEAVFFFA7DJNa0nFVjNiqmTiq3FXYq7FXYq7FXYqkfnTzNb+WvLl3qstDJGvC1jP7c77R
r9+59q5XlycEbczQ6Q58ogPj7ur5c0nTNW8zeYrfT7etxqeq3AUO29ZJWqzuR2FSzHwzUAGR8y+i
5Jww4yTtGI+595eXNCstA0Kw0ayFLWwhSCMnq3EULH3Y7n3zcxjwig+Z58xyzM5c5FMck1OxV2Ku
xV2KuxV2KsG/N3ySfM/llntY+Wq6dWezoPicU/eRf7MCo9wMwO0dL4uPb6o8noPZ3tT8rnqR/dz2
Pl3H4fdb528o+Z7ry3r1vqcNWVDwuYenqRN9tf4j3pnOaXOcUxIPpHafZ8dXgOM/A9x6fjufT2n6
lZ6lYQX9nIJbW4QSRSDuD+ojoRnXwmJxEhyL45nwTxTMJipRNFjn5m31zaeTNQeAlXkCQsw7JI4V
/vU0+nMTtGZjhlTt/ZzDHJrYCXSz8QLH63iL6zKsKQQDjGg4rnMeLtQfThpQTZ5qvl/VrW0vSb5C
8ErVdl3IPuO4zN7P1owkiQ2LpfaDsSerjE4z6odDyP7Xrel+aPIttbrKmpws9B8ThlYewQgEfdm8
GvwkXxB4aXYOtBrw5fjz5JXr35u6RbI0ekRte3HRZXBjhB8d6O3yoPnmJn7XhHaHqP2O30Psjmmb
zHgj3c5fqH2+55hrWvarrN0bnUJzK/7C9EQHsijYZos2eeU3I293otBh00OHHGh9p95b0zR57t1L
KRGegHVvl7e+Zui7Olk9Utofe6Ttr2jhpgceP1Zfsj7/AD8vm9I8teVgArMOKKKFx0H+Svv4nOlh
ARFDYPmubNPJIzmbkerNI444Y1jjXii7ADJNbicVWM2KqZOKrcVdirsVdirsVdirsVfNn5weeh5j
136lZSctI01mSFlO0svR5fcbUX2375qtTl4jQ5B73sTs/wADHxS+uX2Du/W9U/5xe/LloIJfO2ox
UkuFa30dWG4jrxmm/wBkRwX25eOX6TF/EXV+0Wvs+DHpvL9A/S+g8znlnYq7FXYq7FXYq7FXYq7F
Xzx+eP5dtpGoN5j02L/cZfP/AKZGo2huG7+ySHf2bbuM5ztPR8EuOP0nn5F9J9l+2fGh4GQ/vIDb
zj+sfd8Ur/Kf8xBod2NH1OSmk3T/ALqVjtBK3c16I37Xh18cHZ2s8M8EvpP2NntL2J+Yj4uMfvY9
P5w/WOny7nuOoWVnqNjLZ3SCa1uE4yIehB8CPvBzoZwE4mJ3BfOMGeeGYnA1KJeG+b/y+1TQrlnt
1a705zWGcD4h/kuB3Ht1zm9T2Xkgbj6o/a+j9m+1GDMAMp8Of+x+fT4sUZXU8WBU+BFDmtlEg0Xp
YZIzFxII8msDMmkTBp15MfhjKr/M3wj8cy8Ohy5OQ+ezqdZ25pcA9UwT3R3P499Mh0jyjI7K0i8i
TsWG3+xXqc3el7LhDeXql9jxPaftTmz3HF+7h/sj8enw+b0LRfKkcCh514juv7bfM9h7ZtHlmRgI
ihEAVV2CjYDFVpOKrGbFVMnFVuKuxV2KuxV2KuxV2KvJPzo/MlbG3k8s6TL/AKdOvHUZ0P8AdRsP
7oEftuPteA9ztharPXpD03YXZfGRmmPSPpHf5+4PP/yj/LW889+Z0syGj0i04y6rdLtxjrtGp/nk
pRfpPbMTBi4z5PQdp68abHf8Z+kfjufbVnZ2tlaQ2dpEsFrbosUEKCioiDiqqPAAZtwKfO5SMiSd
yVXCxdirsVdirsVdirsVdirsVQ+oafZ6jYz2N7Es9pcoY5om3DKwocjOAkKPItmHNLHMTgalHk+V
vzN/Lu+8nauVHKbR7klrC7I7dfSkPT1FH3jfxA5fWaQ4Zf0TyfWexO2Ia3H3ZI/UP0jy+5kX5X/m
oLMRaFr01LQUSyvnP914RyE/sfyt+z8umboNfw+ifLoXSe0Xs74l58A9X8Ue/wAx5946+/n2WRYp
oyrgSRuNwdwRm9fPWO6h5I0S6JZY/SJ7DdfuqMBiDzZRnKJsGksH5eWiH4HWn0j9WAQA5BlPNOX1
En3lGWvk2whYMzbj+Vd/+CYtkmtN7extLUfuYwG/nO7fecVVGbFVhOKrGbFVMnFVuKuxV2KuxV2K
uxV2KvNfzS/Ne38vxSaTo8iy6444ySD4ktgR1PYyeC9up8Di6jUcOw5u/wCyOxzmInk2x/7r9jxT
yn5U17zn5ji0nTUM97dMZJ55CeEaVrJNK+9AK/Sdhuc18IGZoPX6nU49Pj4pbRH4oPtfyF5H0fyX
5dg0XTFqF/eXVywAeeZgOUj0+VAOwoM22PGICg+ea3WT1GQzl8PIMiyxxHYq7FXYq7FXYq7FXYq7
FXYq7FUBrmh6Xrmlz6ZqcAuLO4WjoeoPZlPVWXqCMhkxxnHhlycjS6rJgyDJjNSD5a/Mj8sdY8m3
pc8rrRpmpa34GwrWkctPsvT6D28BzWq0csR74976r2P23j1kf5uQc4/pHl9yM/L/APNm90L09N1b
nd6QKLG/WWAf5NftJ/k9u3gb9Hrzj9Mt4/c4Hbfs3DU3kxenL9kv1Hz+fe9w07VdP1SzjvdPuEub
WUVSWM1HyPcEdwd830JiQsGw+b6jT5MMzDIDGQVycm0rCcVU2bFVhOKrGbFVMnFVuKuxV2KuxV2K
uxVbLLFDE8srrHFGCzyOQqqo3JJOwAxSASaHN41+Yv53IBLpXlWTkxqs+qjoPEQA9f8AX+7xzBza
rpH5vVdmdg8p5v8AS/r/AFfN5p5N8leZPOuuLpukQtPO553V1IT6cSE/FLK5/wBs9qnMOGMzNB6L
VavHp4cUth0Hf5B9kflv+WuheRNF+o6ePWvJqNf6i6gSTuOnjxRf2Vrt7mpza4sQgKDwGv7QnqZ8
Uth0Hcy7LXBdirsVdirsVdirsVdirsVdirsVdirsVUL+wstQs5bK+gS5tJ14TQSKGRlPYg5GURIU
eTZiyyxyEompDqHz1+ZP5Cajphl1Pysj32nbtJp273EQ/wCK+8qj/gvn1zSars4x3huO59C7H9qY
ZahqPTP+d/Cff3H7Pc8y0DzTr3lu9M+m3DQNWk1u28b07SRnb+I7ZhYc08ZuJej13Z2DVw4cgvuP
Ue4/gPYfK350aBqapBq9NLvehdjW3Y+If9j5N95zdYO0IS2l6T9jwHaXsrnw+rF+8h/svl1+HyZ8
k0csayROJI3AZHUgqQehBGZ4NvLSiYmjsWicKFjNiqmTiq3FXYq7FXYq7FXYqwrzb+bXlLy9zh9f
9Iagu31S1Iah/wCLJPsp+J9soyaiMfMu20fY2fPvXDHvP6A8N85/mX5k81O0d1L9W06tUsICRHt0
Lnq5+e3gBmvy55T9z1+h7KxafcC5d5/Gyf8A5YfkZ5m86PHe3Ctpfl+oLX8q/HKvcW6GnL/XPwj3
6YcOnM9+Qau0e2Men9I9U+7u976y8o+TfL3lLSE0vQ7UW9uu8jn4pZX7vK/VmP4dBQZs4YxEUHh9
VqsmefFM2fxyTrJuO7FXYq7FXYq7FXYq7FXYq7FXYq7FXYq7FXYq7FWDee/ye8p+bfUuZIv0fqzA
01C2ABZvGVNlk/Bv8rMTPo4ZN+R73edme0Go0npB48f80/oPT7vJ8++cvyY87+WWeU2p1LTl3F7Z
gyAL/wAWR/bT32p75qM2iyQ6WHvuz/aHTana+CfdL9B5H7/Ji+h+bvMWhPXS76S3StWhryiJ942q
v00yvFmnD6S52s7N0+pH72Al59fnzZ/pH593aBU1jTUm/mntWKN/yLfkD/wQzYY+0j/EHltV7GRO
+GdeUt/tH6mXaf8AnB5GvVHO8ezkP+67mNlP/BJzT/hsy4a3GetOg1HsxrcfKImP6J/XR+xP7XzP
5bu/95dVtJj4JPGT9IDVy8ZYHkQ6rJoNRD6scx/mlMY5I5F5RsHXpVSCPwyy3FMSOa5mVVLMQFAq
SdgAMUAIC61/QrQE3WpWtuB19WaNP+JMMiZxHMt8NLll9MZH3Asf1L82vIFgDz1VLhx0S2V5q/Jl
BT/hsqlqYDq52LsTVT/gr37ML1r/AJyItFDJoulPI37M14wQD/nnGWJ/4MZRLWjoHa4PZmX+Un8v
1n9TzjzH+ZfnLXw8d7ftFavWtpbfuYqHsQvxMP8AWJzFnnnLmXe6XsrBh3jHfvO5/Hub8m/lh528
3yD9C6a72taPfzfurZd6H942zU7hKn2wY8Mpcgz1XaOHB9ct+7q+i/y8/wCcbPK2gGK+8wMuuaql
GETilnGw/ljO8nzfb/JGZ+LSxjudy8pru38uX04/RH7f2fD5vYVVUUKoCqooqjYADsMynQN4q7FX
Yq7FXYq7FXYq7FXYq7FXYq7FXYq7FXYq7FXYq7FXYqxLzR+VPkTzKXk1HS40u363lt+4mr4lkoHP
+uDmPk0uOfMO10fbeq0+0Jnh7juP2fB5Xr//ADizJ8T+X9bB/kt79CPvmiB/5N5hT7N/mn5vT6b2
zHLLj+MT+g/refax+Q/5oacWI0n67Ev+7bSWOWvySqyf8LmPLR5B0d3h9pdHk/j4T5gj9n2sS1Dy
f5u08t9e0S/tgtamW2mQbd6laU265UcUhzBc2GvwT+mcT/nBJpo5Ym4So0b9eLAg/ccFNnGDyUvi
ZgqgliaADcknCA1SkjrTyz5lvmC2Wk3t0x2Aht5ZCd6fsqe5ywQJ5BxMmqxx5yiPiGS6X+R/5qam
V9Hy/PAjdXuyltQeJWZkb8Mujp5no67N2zpoc5g+7f7meeX/APnE3zDOVfXtYtrGM7mG1V7iT5Fm
9FVPy5ZfHRHqXVZ/aXGPoiT79v1vV/Kv/OP/AOWvl5km+oHVbtDUXGosJqH2iAWH5fBX3zJhpoR8
3R6ntvUZdr4R/R2+3m9GREjRY41CIgCoiigAGwAAzIdUTbeKHYq7FXYq7FXYq7FXYq7FXYq7FXYq
7FXYq7FXYq7FXYq7FXYq7FXYq7FXYq7FXYq7FXYq7FXYq7FXYq7FXYq7FXYq7FXYq7FXYq7FXYq7
FXYq7FXYq7FXYq7FXYq7FXYq7FXYq7FXYq7FXYq7FXYq7FXYq7FXYq7FXYq7FXYq7FXYq7FXYq7F
XYq7FX//2Q==</xapGImg:image>

    </rdf:li>

   </rdf:Alt>

  </xap:Thumbnails>

 </rdf:Description>


 <rdf:Description
   rdf:about="uuid:cc334bcf-f38c-47b9-b470-6dabc9899722"
   id="Description74">
  <xapMM:DocumentID
   id="DocumentID76">uuid:8ee503fe-5a2f-428b-bd75-0aed6bb6841d</xapMM:DocumentID>

 </rdf:Description>


 <rdf:Description
   rdf:about="uuid:cc334bcf-f38c-47b9-b470-6dabc9899722"
   id="Description80">
  <dc:format
   id="format82">image/svg+xml</dc:format>

  <dc:title
   id="title85">
   <rdf:Alt
   id="Alt87">
    <rdf:li
   xml:lang="x-default"
   id="li89">netscape_doc.ai</rdf:li>

   </rdf:Alt>

  </dc:title>

 </rdf:Description>


<cc:Work
   rdf:about=""
   id="Work327">
  <dc:format
     id="format328">image/svg+xml</dc:format>
  <dc:type
     id="type330"
     rdf:resource="http://purl.org/dc/dcmitype/StillImage" />
</cc:Work>
</rdf:RDF>
</metadata>
</x:xmpmeta>

                                                                                                                                                                                                                                                                                                                                                                                                                                                                                                                                                                                                                                                                                                                                                                                                                                                                                                                                                                                                                                                                                                                                                                                                                                                                                                                                                                                                                                                                                                                                                                                                                                                                                                                                                                                                                                                                                                                                                                                                                                                                                                                                <xpacket
   id="xpacket97" />

			</metadata>
  <g
     id="Layer_2">
    <rect
       width="128.00000"
       height="128.00000"
       x="0.0000000"
       y="0.0000000"
       style="fill:none;"
       id="rect102" />
  </g>
  <g
     id="Layer_1">
    <linearGradient
       x1="27.569824"
       y1="34.449219"
       x2="90.991356"
       y2="97.870750"
       id="XMLID_9_"
       gradientUnits="userSpaceOnUse">
      <stop
         style="stop-color:#ff3300;stop-opacity:1.0000000;"
         offset="0.0000000"
         id="stop109" />
      <stop
         style="stop-color:#f62a00;stop-opacity:1.0000000;"
         offset="0.22691379"
         id="stop111" />
      <stop
         style="stop-color:#df1100;stop-opacity:1.0000000;"
         offset="0.59751147"
         id="stop113" />
      <stop
         style="stop-color:#cf0000;stop-opacity:1.0000000;"
         offset="0.81460702"
         id="stop115" />
      <stop
         style="stop-color:#990000;stop-opacity:1.0000000;"
         offset="1.0000000"
         id="stop117" />
      <a:midPointStop
         offset="0"
         style="stop-color:#FF3300"
         id="midPointStop119" />
      <a:midPointStop
         offset="0.59887"
         style="stop-color:#FF3300"
         id="midPointStop121" />
      <a:midPointStop
         offset="0.814607"
         style="stop-color:#CF0000"
         id="midPointStop123" />
      <a:midPointStop
         offset="0.5"
         style="stop-color:#CF0000"
         id="midPointStop125" />
      <a:midPointStop
         offset="1"
         style="stop-color:#990000"
         id="midPointStop127" />
    </linearGradient>
    <path
       d="M 7.7558594,67.301758 C 7.7558594,96.342773 31.381836,119.96875 60.421875,119.96875 C 89.462891,119.96875 113.08887,96.342773 113.08887,67.301758 C 113.08887,38.261230 89.462891,14.635254 60.421875,14.635254 C 31.381836,14.635254 7.7558594,38.261231 7.7558594,67.301758 z "
       style="fill:url(#XMLID_9_);"
       id="path130" />
    <linearGradient
       x1="27.565430"
       y1="34.445312"
       x2="90.987503"
       y2="97.867393"
       id="XMLID_10_"
       gradientUnits="userSpaceOnUse">
      <stop
         style="stop-color:#ffffff;stop-opacity:1.0000000;"
         offset="0.0000000"
         id="stop134" />
      <stop
         style="stop-color:#f6f6f6;stop-opacity:1.0000000;"
         offset="0.22691379"
         id="stop136" />
      <stop
         style="stop-color:#dddddd;stop-opacity:1.0000000;"
         offset="0.59751147"
         id="stop138" />
      <stop
         style="stop-color:#cccccc;stop-opacity:1.0000000;"
         offset="0.81460702"
         id="stop140" />
      <a:midPointStop
         offset="0"
         style="stop-color:#FFFFFF"
         id="midPointStop142" />
      <a:midPointStop
         offset="0.59887"
         style="stop-color:#FFFFFF"
         id="midPointStop144" />
      <a:midPointStop
         offset="0.814607"
         style="stop-color:#CCCCCC"
         id="midPointStop146" />
    </linearGradient>
    <circle
       cx="60.422363"
       cy="67.301758"
       r="48.666504"
       style="fill:url(#XMLID_10_);"
       id="circle149" />
  </g>
  <g
     id="Layer_3">
    <path
       d="M 87.226562,11.539062 C 76.212891,18.221680 103.62012,100.19336 116.97168,82.895508 C 131.99219,63.434082 14.004883,88.777344 36.509766,99.285156 C 62.879394,111.59375 107.75391,-0.92480470 87.226562,11.539062 z "
       style="fill:none;"
       id="path154" />
    <path
       d="M 83.779297,9.0908203 C 72.767578,15.775391 100.17480,97.748047 113.52832,80.447266 C 128.54883,60.987793 10.559082,86.330078 33.067871,96.835938 C 59.436523,109.14551 104.30859,-3.3715820 83.779297,9.0908203 z "
       style="fill:none;"
       id="path156" />
    <path
       d="M 103.30566,73.034180 C 102.19629,71.113281 101.20801,69.138672 100.27344,67.280273 C 96.850586,60.463379 94.173828,53.266602 91.879883,46.004395 C 90.844727,42.720703 89.902344,39.394531 89.094727,36.036621 C 89.423828,35.110352 89.750977,34.183594 90.066406,33.260254 C 90.891602,30.844238 91.790039,28.261719 92.552734,25.614258 C 90.806641,24.265137 88.974609,23.023438 87.064453,21.898438 C 86.985351,22.288574 86.904297,22.677734 86.814453,23.065918 C 86.770508,22.608399 86.737305,22.150879 86.706055,21.692383 C 84.474609,20.401367 82.140625,19.270508 79.718750,18.312988 C 79.049805,24.633301 81.108398,32.387695 82.387695,37.493164 C 78.525391,48.251953 73.531250,58.693848 67.882812,68.551758 C 65.864258,72.073242 63.600586,76.037109 61.038086,79.905273 C 52.101562,82.129883 43.067871,84.920898 35.187988,89.457031 C 32.567871,90.967773 29.419922,93.193359 28.952637,96.411133 C 28.500000,99.521484 32.854980,101.28613 35.155762,101.82422 C 45.407715,104.23047 54.739258,95.028320 60.754394,88.028320 C 62.044922,86.525391 63.287597,84.969727 64.505859,83.387695 C 67.064453,82.816406 69.598633,82.283203 72.062500,81.757812 C 80.486328,79.956055 89.426758,78.152344 98.248047,77.726562 C 98.584961,78.234375 98.918945,78.744141 99.266601,79.242188 C 101.68457,82.697266 104.76855,86.464844 109.18262,87.169922 C 109.18359,87.169922 109.18457,87.169922 109.18555,87.169922 C 109.87793,85.477539 110.48047,83.741211 110.99609,81.966797 C 110.64648,81.745117 110.31543,81.490234 110.02539,81.269531 C 108.72559,80.281250 107.57812,79.084961 106.52539,77.785156 C 106.85937,77.807617 107.19434,77.822266 107.52734,77.850586 C 108.67676,77.946289 110.49512,78.160156 111.84375,78.653320 C 112.21582,76.963867 112.50684,75.244141 112.71191,73.498047 C 110.04297,73.076172 107.32617,73.025391 105.79785,73.015625 C 104.96777,73.010742 104.13672,73.017578 103.30566,73.034180 z M 44.360840,96.478516 C 41.611328,97.812500 38.123535,97.943359 35.827637,95.615234 C 35.389160,95.171875 35.542969,94.814453 35.735352,94.527344 C 36.194824,93.854492 37.579102,92.957031 38.855957,92.224609 C 44.436523,89.009766 50.819336,86.833008 57.300293,85.123047 C 53.591309,89.884766 49.329102,94.070312 44.360840,96.478516 z M 68.301758,78.186523 C 74.928711,68.581055 80.391602,57.896484 84.874023,47.056641 C 87.482422,56.161133 90.921875,65.299805 95.621094,73.468750 C 86.413086,74.297852 77.205078,76.161133 68.301758,78.186523 z "
       style="opacity:0.20000000;"
       id="path158" />
    <path
       d="M 104.77344,71.990234 C 103.94336,71.985352 103.11230,71.992188 102.28027,72.008789 C 101.17090,70.087891 100.18262,68.114258 99.248047,66.255859 C 95.825195,59.438477 93.149414,52.241699 90.855469,44.979492 C 89.820312,41.696289 88.876953,38.370117 88.070312,35.012695 C 88.398437,34.085938 88.726562,33.159180 89.041992,32.235352 C 89.845703,29.881836 90.718750,27.371094 91.468750,24.795410 C 89.711914,23.508789 87.873047,22.328613 85.960937,21.263672 C 85.906250,21.523437 85.849609,21.782715 85.790039,22.041992 C 85.760742,21.734863 85.735352,21.427246 85.710937,21.119629 C 83.450195,19.876465 81.089844,18.792969 78.643555,17.888184 C 78.158203,24.092773 80.124023,31.521484 81.363281,36.466797 C 77.500977,47.226074 72.506836,57.668457 66.857422,67.526367 C 64.838867,71.047852 62.575195,75.011719 60.013183,78.879883 C 51.076660,81.104492 42.043457,83.896484 34.163086,88.432617 C 31.542969,89.942383 28.395019,92.167969 27.927734,95.385742 C 27.475097,98.497070 31.830078,100.26172 34.130859,100.79980 C 44.382812,103.20605 53.714844,94.002930 59.729492,87.002930 C 61.020019,85.500977 62.262695,83.944336 63.480469,82.362305 C 66.039062,81.791016 68.573242,81.258789 71.037109,80.732422 C 79.460937,78.931641 88.401367,77.127930 97.222656,76.702148 C 97.559570,77.209961 97.893554,77.719727 98.241211,78.217773 C 100.65918,81.672852 103.74414,85.439453 108.15820,86.145508 C 108.62598,86.220703 109.09180,86.243164 109.55566,86.232422 C 110.15918,84.670899 110.68945,83.074219 111.14453,81.445313 C 110.36914,81.304688 109.60156,80.703125 109.00098,80.244141 C 107.70020,79.256836 106.55273,78.060547 105.50000,76.759766 C 105.83398,76.782227 106.16992,76.796875 106.50293,76.825195 C 108.02832,76.952148 110.72949,77.286133 111.94629,78.208008 C 112.33008,76.395508 112.62598,74.550781 112.81641,72.675781 C 109.81348,72.065430 106.51855,72.001953 104.77344,71.990234 z M 43.335938,95.453125 C 40.586426,96.787109 37.098633,96.918945 34.802734,94.590820 C 34.364258,94.147461 34.518066,93.790039 34.710449,93.502930 C 35.169922,92.830078 36.554199,91.932617 37.831055,91.199219 C 43.412109,87.984375 49.794434,85.807617 56.275391,84.097656 C 52.566406,88.859375 48.304199,93.044922 43.335938,95.453125 z M 67.277344,77.161133 C 73.904297,67.555664 79.367188,56.871582 83.849609,46.032227 C 86.457031,55.136230 89.897461,64.273926 94.595703,72.443359 C 85.388672,73.272461 76.179688,75.135742 67.277344,77.161133 z "
       style="opacity:0.20000000;"
       id="path160" />
    <radialGradient
       cx="84.230469"
       cy="60.837402"
       r="29.130449"
       fx="84.230469"
       fy="60.837402"
       id="XMLID_11_"
       gradientUnits="userSpaceOnUse">
      <stop
         style="stop-color:#990000;stop-opacity:1.0000000;"
         offset="0.0000000"
         id="stop164" />
      <stop
         style="stop-color:#f8310e;stop-opacity:1.0000000;"
         offset="1.0000000"
         id="stop166" />
      <a:midPointStop
         offset="0"
         style="stop-color:#990000"
         id="midPointStop168" />
      <a:midPointStop
         offset="0.5"
         style="stop-color:#990000"
         id="midPointStop170" />
      <a:midPointStop
         offset="1"
         style="stop-color:#F8310E"
         id="midPointStop172" />
    </radialGradient>
    <path
       d="M 82.145508,7.5937500 C 73.890625,13.183105 78.880859,29.328125 80.698242,36.904297 C 84.019531,50.757324 88.989258,65.426758 97.216797,77.192383 C 99.634766,80.647461 102.71973,84.415039 107.13281,85.120117 C 111.41895,85.809570 115.66211,82.726562 117.50391,79.041992 C 121.36133,71.325195 107.98340,70.992188 103.74805,70.965820 C 91.151367,70.885742 78.338867,73.382812 66.106445,76.169922 C 54.961914,78.708984 43.123535,81.659180 33.138184,87.407227 C 30.518066,88.917969 27.370117,91.143555 26.902832,94.361328 C 26.450684,97.471680 30.805176,99.236328 33.105957,99.774414 C 43.357910,102.18066 52.689941,92.978516 58.705078,85.978516 C 72.034180,70.459961 81.453125,50.443848 88.016601,31.210449 C 90.168945,24.907227 92.829101,17.475098 92.244141,10.693359 C 91.742188,4.8110353 86.285156,5.1767579 82.147461,7.5947267 C 78.132812,9.9423830 82.364258,12.368652 85.414062,10.587891 C 86.151367,10.155762 84.782227,10.250000 85.118164,10.585938 C 85.530274,10.999512 85.688477,12.756836 85.692383,13.724610 C 85.720703,18.342774 84.319336,23.017578 83.010742,27.392578 C 78.943359,40.998047 72.882813,54.200196 65.833008,66.501953 C 60.262207,76.217774 52.861817,89.315430 42.311035,94.428711 C 39.561524,95.762696 36.073731,95.893555 33.777832,93.565430 C 33.339356,93.122070 33.493652,92.764649 33.685547,92.477539 C 34.145020,91.804688 35.529297,90.907227 36.806152,90.174805 C 46.664551,84.496094 59.023926,82.052735 70.012695,79.708008 C 81.413086,77.269531 93.761719,74.820313 105.47754,75.800781 C 107.46973,75.966797 111.47266,76.481445 111.54883,78.200195 C 111.57910,78.856445 110.95215,80.027344 110.30957,80.511719 C 109.69922,80.965820 110.88574,80.548828 110.16602,80.434570 C 109.37500,80.310547 108.58789,79.686524 107.97559,79.219727 C 103.50391,75.821289 100.68359,70.122070 98.223633,65.230469 C 94.800781,58.413574 92.124024,51.216797 89.830078,43.954590 C 87.640625,37.009766 85.842774,29.877442 84.938477,22.644531 C 84.595703,19.890137 84.431641,17.100586 84.627930,14.329102 C 84.694336,13.426758 84.832031,12.536621 85.085938,11.667969 C 85.250000,11.111328 86.025391,10.176758 85.414063,10.590332 C 89.248047,7.9960939 85.122070,5.5859377 82.147461,7.5976564 L 82.145508,7.5937500 z "
       style="fill:url(#XMLID_11_);"
       id="path175" />
    <linearGradient
       x1="42.260742"
       y1="82.442383"
       x2="44.598652"
       y2="88.677521"
       id="XMLID_12_"
       gradientUnits="userSpaceOnUse">
      <stop
         style="stop-color:#ffffff;stop-opacity:1.0000000;"
         offset="0.0000000"
         id="stop179" />
      <stop
         style="stop-color:#f8310e;stop-opacity:1.0000000;"
         offset="1.0000000"
         id="stop181" />
      <a:midPointStop
         offset="0"
         style="stop-color:#FFFFFF"
         id="midPointStop183" />
      <a:midPointStop
         offset="0.5"
         style="stop-color:#FFFFFF"
         id="midPointStop185" />
      <a:midPointStop
         offset="1"
         style="stop-color:#F8310E"
         id="midPointStop187" />
    </linearGradient>
    <path
       d="M 32.946777,94.381836 C 32.285645,93.709961 32.294434,93.018555 32.360352,92.662109 L 32.719727,91.826172 C 33.034180,91.366211 33.734863,90.595703 36.226562,89.164062 C 41.151855,86.325195 47.086914,84.043945 54.900391,81.978515 L 57.961426,81.167969 C 58.880859,80.474609 59.586426,79.637695 59.825683,78.691406 L 59.696777,78.883789 L 59.257324,78.993164 C 51.733887,80.867187 42.031738,83.629883 33.718750,88.415039 C 31.537598,89.671875 28.580078,91.657226 28.083984,94.358398 L 28.055664,94.526367 C 27.862793,95.851562 29.199707,96.964844 30.789062,97.728515 C 32.251465,96.996094 33.743652,96.440430 35.170898,95.886719 C 34.346191,95.527344 33.589356,95.034180 32.946777,94.381836 z "
       style="fill:url(#XMLID_12_);"
       id="path190" />
    <linearGradient
       x1="110.29492"
       y1="70.825195"
       x2="109.12218"
       y2="75.516136"
       id="XMLID_13_"
       gradientUnits="userSpaceOnUse">
      <stop
         style="stop-color:#ffffff;stop-opacity:1.0000000;"
         offset="0.0000000"
         id="stop194" />
      <stop
         style="stop-color:#f8310e;stop-opacity:1.0000000;"
         offset="1.0000000"
         id="stop196" />
      <a:midPointStop
         offset="0"
         style="stop-color:#FFFFFF"
         id="midPointStop198" />
      <a:midPointStop
         offset="0.5"
         style="stop-color:#FFFFFF"
         id="midPointStop200" />
      <a:midPointStop
         offset="1"
         style="stop-color:#F8310E"
         id="midPointStop202" />
    </linearGradient>
    <path
       d="M 116.70312,75.313477 C 115.98828,74.151367 113.35840,72.192383 103.74414,72.129883 L 102.47461,72.178711 L 101.69629,72.212891 C 101.83008,73.044922 102.06641,73.799805 102.39258,74.493164 L 104.99316,74.611328 C 104.99316,74.611328 105.57129,74.638672 105.57520,74.639648 C 110.29004,75.031250 112.62598,76.179688 112.71191,78.148438 L 112.66992,78.714844 C 112.54199,79.417969 112.13086,80.214844 111.62500,80.828125 C 112.47754,81.072266 113.34668,81.288086 114.21875,81.483398 C 115.16016,80.597656 115.93652,79.569336 116.46094,78.521484 C 117.12988,77.185547 117.20801,76.135742 116.70312,75.313477 z "
       style="fill:url(#XMLID_13_);"
       id="path205" />
    <linearGradient
       x1="-96.658691"
       y1="-19.638184"
       x2="-96.658691"
       y2="-36.270538"
       id="XMLID_14_"
       gradientUnits="userSpaceOnUse"
       gradientTransform="matrix(0.983500,0.180900,-0.180900,0.983500,194.6517,132.0436)">
      <stop
         style="stop-color:#cf0000;stop-opacity:1.0000000;"
         offset="0.0000000"
         id="stop209" />
      <stop
         style="stop-color:#f8310e;stop-opacity:1.0000000;"
         offset="1.0000000"
         id="stop211" />
      <a:midPointStop
         offset="0"
         style="stop-color:#CF0000"
         id="midPointStop213" />
      <a:midPointStop
         offset="0.5"
         style="stop-color:#CF0000"
         id="midPointStop215" />
      <a:midPointStop
         offset="1"
         style="stop-color:#F8310E"
         id="midPointStop217" />
    </linearGradient>
    <path
       d="M 111.62500,80.828125 C 111.43066,81.065430 111.22656,81.276367 111.01270,81.439453 L 110.41016,81.895508 C 110.41016,81.895508 110.13965,81.726562 109.87500,81.557617 C 108.87695,81.365234 107.99805,80.701172 107.35156,80.207031 C 106.05176,79.219727 104.89355,78.058594 103.61621,76.487305 L 102.50879,75.125000 C 101.02734,75.541016 99.536133,75.999023 98.065430,76.361328 L 98.171875,76.524414 C 100.62109,80.025391 103.42383,83.346680 107.31738,83.971680 C 109.87500,84.381836 112.37109,83.214844 114.21875,81.483398 C 113.34668,81.288086 112.47754,81.072266 111.62500,80.828125 z "
       style="fill:url(#XMLID_14_);"
       id="path220" />
    <linearGradient
       x1="76.572266"
       y1="73.984375"
       x2="76.977585"
       y2="76.815567"
       id="XMLID_15_"
       gradientUnits="userSpaceOnUse">
      <stop
         style="stop-color:#ffffff;stop-opacity:1.0000000;"
         offset="0.0000000"
         id="stop224" />
      <stop
         style="stop-color:#f8310e;stop-opacity:1.0000000;"
         offset="1.0000000"
         id="stop226" />
      <a:midPointStop
         offset="0"
         style="stop-color:#FFFFFF"
         id="midPointStop228" />
      <a:midPointStop
         offset="0.5"
         style="stop-color:#FFFFFF"
         id="midPointStop230" />
      <a:midPointStop
         offset="1"
         style="stop-color:#F8310E"
         id="midPointStop232" />
    </linearGradient>
    <path
       d="M 66.442383,77.288086 L 63.525879,77.952148 L 63.825195,77.515625 C 62.303711,78.292969 60.730469,79.031250 59.245117,79.872070 C 58.909180,80.344727 58.474609,80.782227 57.961426,81.167969 L 58.060547,81.141602 C 59.575684,80.570312 61.181152,79.883789 62.938477,80.044922 L 68.650391,78.806641 L 69.772461,78.569336 C 78.274414,76.750000 87.318359,74.938477 96.181641,74.517578 L 96.288086,74.510742 C 95.510742,73.484375 93.967773,73.274414 92.886719,72.677734 C 83.500977,73.583008 74.269531,75.504883 66.442383,77.288086 z "
       style="fill:url(#XMLID_15_);"
       id="path235" />
    <linearGradient
       x1="80.876953"
       y1="5.2768555"
       x2="80.876953"
       y2="11.883663"
       id="XMLID_16_"
       gradientUnits="userSpaceOnUse">
      <stop
         style="stop-color:#ffffff;stop-opacity:1.0000000;"
         offset="0.0000000"
         id="stop239" />
      <stop
         style="stop-color:#f8310e;stop-opacity:1.0000000;"
         offset="1.0000000"
         id="stop241" />
      <a:midPointStop
         offset="0"
         style="stop-color:#FFFFFF"
         id="midPointStop243" />
      <a:midPointStop
         offset="0.5"
         style="stop-color:#FFFFFF"
         id="midPointStop245" />
      <a:midPointStop
         offset="1"
         style="stop-color:#F8310E"
         id="midPointStop247" />
    </linearGradient>
    <path
       d="M 101.98242,74.476562 L 102.39258,74.493164 C 102.06641,73.799805 101.83008,73.044922 101.69629,72.212891 L 100.63965,72.261719 L 100.34277,71.647461 L 97.182617,65.751953 C 94.118164,59.654785 91.351563,52.639648 88.721680,44.303711 C 87.636719,40.865723 86.687500,37.468750 85.907227,34.209961 L 85.825195,33.870117 L 86.341797,32.440918 L 86.914063,30.835449 L 87.164063,30.103516 C 88.433594,26.404785 89.868164,22.212891 90.621094,18.121582 C 91.123047,15.385254 91.275391,12.987305 91.084961,10.793457 C 90.943359,9.1347656 90.354492,8.0268554 89.335938,7.4995117 C 87.816406,6.7109375 85.226563,7.1430664 82.734375,8.5996094 L 82.706055,8.6235352 C 82.301758,8.8647461 82.021484,9.1020508 81.823242,9.3740235 L 81.769531,9.4482423 L 81.703125,9.5122070 C 80.348633,10.861328 79.445312,12.712891 79.021484,15.018066 C 77.914062,21.041992 79.939453,29.091797 81.279297,34.419434 L 81.537109,35.442383 L 81.416992,35.774414 C 77.679688,46.193359 72.775391,56.727539 66.842773,67.080078 L 66.772461,67.202149 C 64.770996,70.692383 62.503906,74.648438 59.945801,78.506836 L 59.825684,78.691406 C 59.718750,79.108398 59.510742,79.500000 59.245117,79.872070 C 60.730469,79.031250 62.303711,78.292969 63.825195,77.515625 L 65.226562,75.490234 C 71.395508,66.558594 76.957031,56.138672 81.757812,44.522949 L 83.032227,41.434570 L 83.953125,44.647949 C 86.895508,54.930664 90.384766,63.502930 94.614258,70.852539 L 95.521484,72.429687 L 93.709961,72.593750 C 93.433594,72.617188 93.161133,72.653320 92.886719,72.677734 C 93.967773,73.274414 95.510742,73.484375 96.288086,74.510742 L 96.858398,74.483398 L 97.626953,75.688477 L 98.065430,76.361328 C 99.536133,75.999023 101.02734,75.541016 102.50879,75.125000 L 101.98242,74.476562 M 86.061523,20.432617 L 85.915039,21.041992 L 83.619141,20.892090 C 83.375000,18.241699 83.329101,16.190918 83.466797,14.246094 L 83.466797,14.245117 L 83.672851,12.589844 L 83.969726,11.340820 C 83.969726,11.338867 85.604492,7.8007813 85.604492,7.8007813 L 86.475586,10.729004 C 86.750000,11.586914 86.853516,12.875977 86.857422,13.718750 C 86.868164,15.441406 86.693359,17.259766 86.321289,19.281738 L 86.061523,20.432617 z "
       style="fill:url(#XMLID_16_);"
       id="path250" />
  </g>
</svg>
