<?xml version="1.0" encoding="UTF-8" standalone="no"?>
<!-- Created with Inkscape (http://www.inkscape.org/) -->
<svg
   xmlns:dc="http://purl.org/dc/elements/1.1/"
   xmlns:cc="http://creativecommons.org/ns#"
   xmlns:rdf="http://www.w3.org/1999/02/22-rdf-syntax-ns#"
   xmlns:svg="http://www.w3.org/2000/svg"
   xmlns="http://www.w3.org/2000/svg"
   xmlns:xlink="http://www.w3.org/1999/xlink"
   xmlns:sodipodi="http://sodipodi.sourceforge.net/DTD/sodipodi-0.dtd"
   xmlns:inkscape="http://www.inkscape.org/namespaces/inkscape"
   width="48px"
   height="48px"
   id="svg5284"
   sodipodi:version="0.32"
   inkscape:version="0.46"
   sodipodi:docbase="/home/dobey/Projects/gnome-icon-theme/scalable/categories"
   sodipodi:docname="Erlenmeyer flask Icon.svg"
   inkscape:output_extension="org.inkscape.output.svg.inkscape">
  <defs
     id="defs5286">
    <linearGradient
       id="linearGradient3744">
      <stop
         style="stop-color:#1587a0;stop-opacity:1;"
         offset="0"
         id="stop3746" />
      <stop
         style="stop-color:#06a9bc;stop-opacity:1;"
         offset="1"
         id="stop3748" />
    </linearGradient>
    <linearGradient
       id="linearGradient3429">
      <stop
         id="stop3431"
         offset="0"
         style="stop-color:#15516f;stop-opacity:1;" />
      <stop
         id="stop3433"
         offset="1"
         style="stop-color:#06a9bc;stop-opacity:1;" />
    </linearGradient>
    <linearGradient
       inkscape:collect="always"
       id="linearGradient3359">
      <stop
         style="stop-color:#ffffff;stop-opacity:1;"
         offset="0"
         id="stop3361" />
      <stop
         style="stop-color:#ffffff;stop-opacity:0;"
         offset="1"
         id="stop3363" />
    </linearGradient>
    <linearGradient
       inkscape:collect="always"
       id="linearGradient3351">
      <stop
         style="stop-color:#000000;stop-opacity:1;"
         offset="0"
         id="stop3353" />
      <stop
         style="stop-color:#000000;stop-opacity:0;"
         offset="1"
         id="stop3355" />
    </linearGradient>
    <linearGradient
       id="linearGradient3300">
      <stop
         style="stop-color:#31588c;stop-opacity:1;"
         offset="0"
         id="stop3302" />
      <stop
         style="stop-color:#006fd2;stop-opacity:0;"
         offset="1"
         id="stop3304" />
    </linearGradient>
    <linearGradient
       inkscape:collect="always"
       id="linearGradient4779">
      <stop
         style="stop-color:#000000;stop-opacity:1;"
         offset="0"
         id="stop4781" />
      <stop
         style="stop-color:#000000;stop-opacity:0;"
         offset="1"
         id="stop4783" />
    </linearGradient>
    <linearGradient
       inkscape:collect="always"
       id="linearGradient4751">
      <stop
         style="stop-color:#ffffff;stop-opacity:1;"
         offset="0"
         id="stop4753" />
      <stop
         style="stop-color:#ffffff;stop-opacity:0;"
         offset="1"
         id="stop4755" />
    </linearGradient>
    <linearGradient
       inkscape:collect="always"
       id="linearGradient4739">
      <stop
         style="stop-color:#ffffff;stop-opacity:1;"
         offset="0"
         id="stop4741" />
      <stop
         style="stop-color:#ffffff;stop-opacity:0;"
         offset="1"
         id="stop4743" />
    </linearGradient>
    <linearGradient
       id="linearGradient4699">
      <stop
         style="stop-color:#06a9bc;stop-opacity:1;"
         offset="0"
         id="stop4701" />
      <stop
         style="stop-color:#4371d0;stop-opacity:1;"
         offset="1"
         id="stop4703" />
    </linearGradient>
    <linearGradient
       inkscape:collect="always"
       id="linearGradient4414">
      <stop
         style="stop-color:#ffffff;stop-opacity:1;"
         offset="0"
         id="stop4416" />
      <stop
         style="stop-color:#ffffff;stop-opacity:0;"
         offset="1"
         id="stop4418" />
    </linearGradient>
    <linearGradient
       id="linearGradient4373">
      <stop
         id="stop4375"
         offset="0"
         style="stop-color:#ffffff;stop-opacity:1" />
      <stop
         style="stop-color:#797a76;stop-opacity:1;"
         offset="0.5"
         id="stop4379" />
      <stop
         id="stop4381"
         offset="1"
         style="stop-color:#ffffff;stop-opacity:1" />
    </linearGradient>
    <radialGradient
       inkscape:collect="always"
       xlink:href="#linearGradient4779"
       id="radialGradient3685"
       gradientUnits="userSpaceOnUse"
       gradientTransform="matrix(1,0,0,0.6179775,0,14.72408)"
       cx="16.175068"
       cy="38.542446"
       fx="16.175068"
       fy="38.542446"
       r="7.8665628" />
    <linearGradient
       inkscape:collect="always"
       xlink:href="#linearGradient4751"
       id="linearGradient3689"
       gradientUnits="userSpaceOnUse"
       x1="23.375"
       y1="20.49576"
       x2="23.375"
       y2="37.098476" />
    <linearGradient
       inkscape:collect="always"
       xlink:href="#linearGradient3429"
       id="linearGradient3695"
       gradientUnits="userSpaceOnUse"
       x1="16.175068"
       y1="34.164246"
       x2="15.527606"
       y2="41.552113" />
    <radialGradient
       inkscape:collect="always"
       xlink:href="#linearGradient3351"
       id="radialGradient3710"
       gradientUnits="userSpaceOnUse"
       gradientTransform="matrix(0.9933807,-7.0203566e-3,8.6053511e-3,1.2176575,1.5731589,-12.072947)"
       cx="21.9375"
       cy="25.096191"
       fx="21.9375"
       fy="25.096191"
       r="4.96875" />
    <radialGradient
       inkscape:collect="always"
       xlink:href="#linearGradient4414"
       id="radialGradient3713"
       gradientUnits="userSpaceOnUse"
       gradientTransform="matrix(2.7641423,0,0,2.6839375,-35.125372,-57.814277)"
       cx="19.830584"
       cy="32.614395"
       fx="19.830584"
       fy="32.614395"
       r="2.7943299" />
    <linearGradient
       inkscape:collect="always"
       xlink:href="#linearGradient3429"
       id="linearGradient3716"
       gradientUnits="userSpaceOnUse"
       gradientTransform="matrix(0.7804299,0,0,0.4592283,11.027669,9.6489285)"
       x1="16.175068"
       y1="34.164246"
       x2="15.085135"
       y2="40.973125" />
    <linearGradient
       inkscape:collect="always"
       xlink:href="#linearGradient3300"
       id="linearGradient3719"
       gradientUnits="userSpaceOnUse"
       gradientTransform="matrix(1.1162367,0,0,1.1162367,-2.0222684,-7.8127473)"
       x1="18.09375"
       y1="32.8125"
       x2="16.96875"
       y2="37.5625" />
    <radialGradient
       inkscape:collect="always"
       xlink:href="#linearGradient3359"
       id="radialGradient3722"
       gradientUnits="userSpaceOnUse"
       gradientTransform="matrix(0.9136393,0,0,0.6732162,2.6451446,1.7711181)"
       cx="22.915245"
       cy="22.863281"
       fx="22.915245"
       fy="22.863281"
       r="4.96875" />
    <linearGradient
       inkscape:collect="always"
       xlink:href="#linearGradient4739"
       id="linearGradient3731"
       gradientUnits="userSpaceOnUse"
       gradientTransform="matrix(1.1162367,0,0,1.1162367,-2.0222684,-7.8127473)"
       x1="19.375"
       y1="23.3125"
       x2="28.5"
       y2="57.5625" />
    <radialGradient
       inkscape:collect="always"
       xlink:href="#linearGradient4699"
       id="radialGradient3735"
       gradientUnits="userSpaceOnUse"
       gradientTransform="matrix(1.2328952,0,0,1.7485574,-4.5107875,-30.884317)"
       cx="20.761353"
       cy="35.534462"
       fx="20.761353"
       fy="35.534462"
       r="9.0003331" />
    <linearGradient
       inkscape:collect="always"
       xlink:href="#linearGradient4373"
       id="linearGradient3739"
       gradientUnits="userSpaceOnUse"
       gradientTransform="matrix(1.1162367,0,0,1.1162367,-2.0222684,-6.6965106)"
       x1="14.683199"
       y1="31.5"
       x2="31.940977"
       y2="31.5" />
    <linearGradient
       inkscape:collect="always"
       xlink:href="#linearGradient3744"
       id="linearGradient3742"
       gradientUnits="userSpaceOnUse"
       x1="18.010229"
       y1="36.428543"
       x2="18.056477"
       y2="40.059414" />
  </defs>
  <sodipodi:namedview
     id="base"
     pagecolor="#ffffff"
     bordercolor="#666666"
     borderopacity="1.0"
     inkscape:pageopacity="1"
     inkscape:pageshadow="2"
     inkscape:zoom="11.313708"
     inkscape:cx="19.540906"
     inkscape:cy="26.92592"
     inkscape:current-layer="layer1"
     showgrid="false"
     inkscape:grid-bbox="true"
     inkscape:document-units="px"
     inkscape:window-width="1280"
     inkscape:window-height="970"
     inkscape:window-x="-4"
     inkscape:window-y="-4"
     showborder="true"
     inkscape:showpageshadow="false"
     inkscape:grid-points="true"
     showguides="false"
     inkscape:guide-bbox="true">
    <sodipodi:guide
       orientation="horizontal"
       position="27.625"
       id="guide4897" />
    <sodipodi:guide
       orientation="vertical"
       position="40"
       id="guide4899" />
    <inkscape:grid
       id="GridFromPre046Settings"
       type="xygrid"
       originx="0px"
       originy="0px"
       spacingx="0.5px"
       spacingy="0.5px"
       color="#0000ff"
       empcolor="#0000ff"
       opacity="0.2"
       empopacity="0.4"
       empspacing="2"
       visible="true"
       enabled="true" />
  </sodipodi:namedview>
  <metadata
     id="metadata5289">
    <rdf:RDF>
      <cc:Work
         rdf:about="">
        <dc:format>image/svg+xml</dc:format>
        <dc:type
           rdf:resource="http://purl.org/dc/dcmitype/StillImage" />
        <dc:contributor>
          <cc:Agent>
            <dc:title>Andreasn Nilsson</dc:title>
          </cc:Agent>
        </dc:contributor>
        <dc:title>Applications Science</dc:title>
        <dc:date>2007-01-10</dc:date>
        <dc:creator>
          <cc:Agent>
            <dc:title>Lapo Calamandrei</dc:title>
          </cc:Agent>
        </dc:creator>
        <cc:license
           rdf:resource="http://creativecommons.org/licenses/GPL/2.0/" />
        <dc:subject>
          <rdf:Bag>
            <rdf:li>science</rdf:li>
            <rdf:li>chemicals</rdf:li>
            <rdf:li>baker</rdf:li>
          </rdf:Bag>
        </dc:subject>
      </cc:Work>
      <cc:License
         rdf:about="http://creativecommons.org/licenses/GPL/2.0/">
        <cc:permits
           rdf:resource="http://web.resource.org/cc/Reproduction" />
        <cc:permits
           rdf:resource="http://web.resource.org/cc/Distribution" />
        <cc:requires
           rdf:resource="http://web.resource.org/cc/Notice" />
        <cc:permits
           rdf:resource="http://web.resource.org/cc/DerivativeWorks" />
        <cc:requires
           rdf:resource="http://web.resource.org/cc/ShareAlike" />
        <cc:requires
           rdf:resource="http://web.resource.org/cc/SourceCode" />
      </cc:License>
    </rdf:RDF>
  </metadata>
  <g
     id="layer1"
     inkscape:label="Layer 1"
     inkscape:groupmode="layer">
    <path
       sodipodi:type="arc"
       style="opacity:0.6;fill:url(#radialGradient3685);fill-opacity:1;fill-rule:nonzero;stroke:none;stroke-width:1.02009988;stroke-linecap:round;stroke-linejoin:round;marker:none;marker-start:none;marker-mid:none;marker-end:none;stroke-miterlimit:4;stroke-dasharray:none;stroke-dashoffset:0;stroke-opacity:1;visibility:visible;display:inline;overflow:visible;enable-background:accumulate"
       id="path4769"
       sodipodi:cx="16.175068"
       sodipodi:cy="38.542446"
       sodipodi:rx="7.8665628"
       sodipodi:ry="4.8613591"
       d="M 24.041631,38.542446 A 7.8665628,4.8613591 0 1 1 8.3085051,38.542446 A 7.8665628,4.8613591 0 1 1 24.041631,38.542446 z"
       transform="matrix(1.9422067,0,0,1.2628776,-7.4153247,-9.0470785)" />
    <path
       style="opacity:0.7;fill:url(#linearGradient3739);fill-opacity:1;fill-rule:nonzero;stroke:#555753;stroke-width:1.11623669;stroke-linecap:round;stroke-linejoin:round;marker:none;marker-start:none;marker-mid:none;marker-end:none;stroke-miterlimit:4;stroke-dashoffset:0;stroke-opacity:1;visibility:visible;display:inline;overflow:visible;enable-background:accumulate"
       d="M 23.651176,12.837632 C 20.335394,12.837632 18.248375,14.16243 15.2794,15.070105 L 18.697875,18.697874 C 18.996971,20.09282 19.045889,21.66389 18.069992,22.883762 C 15.837519,25.674354 11.872393,29.555429 11.93069,35.720484 C 11.93069,40.341704 17.181468,44.092259 23.651176,44.092259 C 30.120884,44.092259 35.371661,40.341704 35.371661,35.720484 C 35.085241,29.813296 31.464834,25.674354 29.232359,22.883762 C 27.395143,20.587242 29.140328,17.072763 29.406771,15.802635 C 29.636637,15.569308 29.790478,15.331155 29.790478,15.070105 C 29.790478,13.837788 26.966957,12.837632 23.651176,12.837632 z"
       id="path4650" />
    <path
       sodipodi:type="inkscape:offset"
       inkscape:radius="-0.49231163"
       inkscape:original="M 23 18.5 C 20.0295 18.5 18.159807 19.686844 15.5 20.5 L 18.5625 23.75 C 18.83045 24.999686 18.874274 26.407157 18 27.5 C 16 30 12.447773 33.476929 12.5 39 C 12.5 43.14 17.204 46.5 23 46.5 C 28.796 46.5 33.5 43.14 33.5 39 C 33.243406 33.707943 30.000001 30 28 27.5 C 26.354098 25.442623 27.917552 22.294116 28.15625 21.15625 C 28.362179 20.94722 28.5 20.733866 28.5 20.5 C 28.5 19.396007 25.9705 18.5 23 18.5 z "
       style="opacity:0.5;fill:url(#linearGradient3689);fill-opacity:1;fill-rule:nonzero;stroke:none;stroke-width:1;stroke-linecap:round;stroke-linejoin:round;marker:none;marker-start:none;marker-mid:none;marker-end:none;stroke-miterlimit:4;stroke-dashoffset:0;stroke-opacity:1;visibility:visible;display:inline;overflow:visible;enable-background:accumulate"
       id="path4749"
       d="M 23,19 C 20.440839,19 18.683128,19.924903 16.375,20.71875 L 18.90625,23.40625 C 18.971192,23.475758 19.014609,23.562591 19.03125,23.65625 C 19.312779,24.969267 19.383096,26.55238 18.375,27.8125 C 16.33646,30.360675 12.949787,33.689945 13,39 C 13,40.88354 14.070809,42.617542 15.875,43.90625 C 17.679191,45.194958 20.197133,46 23,46 C 25.802867,46 28.320809,45.194958 30.125,43.90625 C 31.919127,42.624731 32.988182,40.902567 33,39.03125 C 32.999483,39.020589 33.000542,39.010648 33,39 C 32.741095,33.914218 29.634648,30.324559 27.625,27.8125 C 26.678018,26.628773 26.647796,25.160351 26.875,23.90625 C 27.102204,22.652149 27.593761,21.509352 27.6875,21.0625 C 27.704141,20.968841 27.747558,20.882008 27.8125,20.8125 C 27.977961,20.644548 28,20.540448 28,20.5 C 28,20.412001 27.966579,20.276489 27.75,20.09375 C 27.533421,19.911011 27.152336,19.730153 26.6875,19.5625 C 25.757829,19.227195 24.435751,19 23,19 z"
       transform="matrix(1.1162367,0,0,1.1162367,-2.0222684,-7.8127473)" />
    <path
       style="fill:url(#radialGradient3735);fill-opacity:1;fill-rule:nonzero;stroke:#15516f;stroke-width:1.11623669000000000;stroke-linecap:round;stroke-linejoin:round;marker:none;marker-start:none;marker-mid:none;marker-end:none;stroke-miterlimit:4;stroke-dashoffset:0;stroke-opacity:1;visibility:visible;display:inline;overflow:visible;enable-background:accumulate"
       d="M 17.337462,27.348709 C 15.62432,29.592583 14.129954,32.173707 14.163164,35.685602 C 14.163254,35.697229 14.163254,35.708856 14.163164,35.720484 C 14.163164,37.186477 14.989545,38.632927 16.674696,39.836607 C 18.359847,41.040286 20.847249,41.859786 23.651176,41.859786 C 26.455102,41.859786 28.942504,41.040286 30.627655,39.836607 C 32.300272,38.64188 33.12715,37.209979 33.139188,35.755366 C 33.138537,35.743327 33.139871,35.732507 33.139188,35.720484 C 32.948109,32.357926 31.491373,29.643518 29.860242,27.348709 L 17.337462,27.348709 z"
       id="path4690" />
    <path
       sodipodi:type="arc"
       style="fill:url(#linearGradient3742);fill-opacity:1.0;fill-rule:nonzero;stroke:url(#linearGradient3695);stroke-width:1.86455441000000000;stroke-linecap:round;stroke-linejoin:round;marker:none;marker-start:none;marker-mid:none;marker-end:none;stroke-miterlimit:4;stroke-dasharray:none;stroke-dashoffset:0;stroke-opacity:1;visibility:visible;display:inline;overflow:visible;enable-background:accumulate"
       id="path4694"
       sodipodi:cx="16.175068"
       sodipodi:cy="38.542446"
       sodipodi:rx="7.8665628"
       sodipodi:ry="4.8613591"
       d="M 24.041631,38.542446 A 7.8665628,4.8613591 0 1 1 8.3085051,38.542446 A 7.8665628,4.8613591 0 1 1 24.041631,38.542446 z"
       transform="matrix(0.7804299,0,0,0.4592283,11.027669,9.6489285)" />
    <path
       sodipodi:nodetypes="cccsscsssssssscsc"
       id="path4727"
       d="M 23.651176,13.953868 C 21.264706,13.953868 19.451347,14.764366 17.302579,15.558459 L 19.535053,17.930462 C 19.673095,18.076848 19.769448,18.257509 19.814112,18.453698 C 20.144301,19.993661 20.224382,21.978496 18.942052,23.58141 C 16.621328,26.482315 12.993242,30.043206 13.046927,35.720484 C 13.046927,37.604127 14.111058,39.3509 16.011931,40.708667 C 17.912804,42.066434 20.634162,42.976023 23.651176,42.976023 C 26.668189,42.976023 29.389548,42.066434 31.290421,40.708667 C 33.16847,39.367203 34.23028,37.648304 34.255424,35.790249 C 34.25426,35.766243 34.256707,35.744428 34.255424,35.720484 C 33.964212,30.284729 30.614568,26.399246 28.360299,23.58141 C 27.157678,22.078134 27.150494,20.246813 27.418475,18.767639 C 27.686455,17.288465 28.355485,15.913976 28.430064,15.558459 C 28.470215,15.378127 28.554066,15.210425 28.674241,15.070105 C 28.505574,14.932885 28.055126,14.713586 27.592887,14.546869 C 26.64202,14.20392 25.195719,13.953868 23.651176,13.953868 z"
       style="opacity:0.58999999;fill:none;fill-opacity:1;fill-rule:nonzero;stroke:url(#linearGradient3731);stroke-width:1.11623669;stroke-linecap:round;stroke-linejoin:round;marker:none;marker-start:none;marker-mid:none;marker-end:none;stroke-miterlimit:4;stroke-dashoffset:0;stroke-opacity:1;visibility:visible;display:inline;overflow:visible;enable-background:accumulate" />
    <path
       sodipodi:type="inkscape:offset"
       inkscape:radius="-1.0015419"
       inkscape:original="M 23 18.5 C 20.0295 18.5 18.159807 19.686844 15.5 20.5 C 18.190631 21.333497 20 22.5 23 22.5 C 26 22.5 28.5 21.604002 28.5 20.5 C 28.5 19.396007 25.9705 18.5 23 18.5 z "
       style="opacity:0.5;fill:#000000;fill-opacity:0.10266161;fill-rule:nonzero;stroke:#ffffff;stroke-width:0.81649655;stroke-linecap:round;stroke-linejoin:round;marker:none;marker-start:none;marker-mid:none;marker-end:none;stroke-miterlimit:4;stroke-dasharray:none;stroke-dashoffset:0;stroke-opacity:1;visibility:visible;display:inline;overflow:visible;enable-background:accumulate"
       id="path4761"
       d="M 23,19.5 C 21.290422,19.5 19.908783,19.96005 18.46875,20.5 C 19.898992,21.038819 21.267247,21.5 23,21.5 C 24.400291,21.5 25.683204,21.275742 26.53125,20.96875 C 26.955273,20.815254 27.261471,20.623159 27.40625,20.5 C 27.258948,20.375714 26.957806,20.185096 26.53125,20.03125 C 25.678139,19.723558 24.38455,19.5 23,19.5 z"
       transform="matrix(1.1162367,0,0,1.674355,-2.0222684,-18.696055)" />
    <g
       id="g4798"
       style="opacity:0.7"
       transform="matrix(1.1162367,0,0,1.1162367,-2.0222684,-7.8127473)">
      <path
         sodipodi:nodetypes="cc"
         id="path4789"
         d="M 17.5,36.5 L 28.5,10.5"
         style="fill:#888a85;fill-opacity:1;fill-rule:evenodd;stroke:#babdb6;stroke-width:3;stroke-linecap:round;stroke-linejoin:miter;stroke-miterlimit:4;stroke-dasharray:none;stroke-opacity:1" />
      <path
         transform="matrix(2.5,0,0,2.5,-27.5,-58.5)"
         d="M 19,38 A 1,1 0 1 1 17,38 A 1,1 0 1 1 19,38 z"
         sodipodi:ry="1"
         sodipodi:rx="1"
         sodipodi:cy="38"
         sodipodi:cx="18"
         id="path4793"
         style="opacity:1;fill:#888a85;fill-opacity:1;fill-rule:nonzero;stroke:none;stroke-width:1;stroke-linecap:round;stroke-linejoin:round;marker:none;marker-start:none;marker-mid:none;marker-end:none;stroke-miterlimit:4;stroke-dasharray:none;stroke-dashoffset:0;stroke-opacity:1;visibility:visible;display:inline;overflow:visible;enable-background:accumulate"
         sodipodi:type="arc" />
      <path
         sodipodi:nodetypes="cc"
         id="path4787"
         d="M 17.5,36.5 L 28.5,10.5"
         style="fill:none;fill-rule:evenodd;stroke:#ffffff;stroke-width:1px;stroke-linecap:round;stroke-linejoin:miter;stroke-opacity:1" />
      <path
         transform="matrix(1.5,0,0,1.5,-9.5,-20.5)"
         d="M 19,38 A 1,1 0 1 1 17,38 A 1,1 0 1 1 19,38 z"
         sodipodi:ry="1"
         sodipodi:rx="1"
         sodipodi:cy="38"
         sodipodi:cx="18"
         id="path4791"
         style="opacity:1;fill:#ffffff;fill-opacity:1;fill-rule:nonzero;stroke:none;stroke-width:1;stroke-linecap:round;stroke-linejoin:round;marker:none;marker-start:none;marker-mid:none;marker-end:none;stroke-miterlimit:4;stroke-dasharray:none;stroke-dashoffset:0;stroke-opacity:1;visibility:visible;display:inline;overflow:visible;enable-background:accumulate"
         sodipodi:type="arc" />
    </g>
    <path
       style="fill:none;fill-opacity:0.10266161;fill-rule:nonzero;stroke:url(#radialGradient3722);stroke-width:1.11623669;stroke-linecap:round;stroke-linejoin:round;marker:none;marker-start:none;marker-mid:none;marker-end:none;stroke-miterlimit:4;stroke-dashoffset:0;stroke-opacity:1;visibility:visible;display:inline;overflow:visible;enable-background:accumulate"
       d="M 18.593228,16.186342 C 20.189717,16.787791 21.717013,17.302578 23.651176,17.302578 C 25.214232,17.302578 26.646266,17.052253 27.592887,16.709578 C 28.066197,16.53824 28.407986,16.323816 28.569594,16.186342"
       id="path4795"
       sodipodi:nodetypes="cssc" />
    <path
       style="fill:url(#linearGradient3719);fill-opacity:1;fill-rule:evenodd;stroke:none;stroke-width:3;stroke-linecap:round;stroke-linejoin:miter;stroke-miterlimit:4;stroke-dasharray:none;stroke-opacity:1"
       d="M 18.104874,27.244062 L 16.849108,30.243948 C 15.633029,30.545019 14.721282,31.621186 14.721282,32.929892 C 14.721282,34.470299 15.971467,35.720484 17.511874,35.720484 C 19.05228,35.720484 20.302465,34.470299 20.302465,32.929892 C 20.302465,32.421854 20.156294,31.94506 19.918759,31.534596 L 21.627997,27.523121 C 21.27684,27.745823 20.697334,27.906827 20.023406,27.906827 C 19.079907,27.906827 18.287122,27.625435 18.104874,27.244062 z"
       id="path4806"
       sodipodi:nodetypes="ccsssccsc" />
    <path
       style="fill:none;fill-opacity:1;fill-rule:nonzero;stroke:url(#linearGradient3716);stroke-width:1.11623681;stroke-linecap:round;stroke-linejoin:round;marker:none;marker-start:none;marker-mid:none;marker-end:none;stroke-miterlimit:4;stroke-dashoffset:0;stroke-opacity:1;visibility:visible;display:inline;overflow:visible;enable-background:accumulate"
       d="M 23.651177,29.581182 C 20.262282,29.581182 17.511876,28.581034 17.511876,27.348709"
       id="path5025"
       sodipodi:nodetypes="cc" />
    <path
       style="opacity:0.7;fill:url(#radialGradient3713);fill-opacity:1;fill-rule:nonzero;stroke:none;stroke-width:1;stroke-linecap:round;stroke-linejoin:round;marker:none;marker-start:none;marker-mid:none;marker-end:none;stroke-miterlimit:4;stroke-dashoffset:0;stroke-opacity:1;visibility:visible;display:inline;overflow:visible;enable-background:accumulate"
       d="M 20.302465,16.186342 C 21.690568,16.46174 22.641752,16.456055 23.651176,16.487836 C 24.209294,25.116235 20.860584,32.929892 23.651176,40.185431 L 20.302465,40.185431 C 11.93069,31.255537 25.325531,23.999999 20.302465,16.186342 z"
       id="path4763"
       sodipodi:nodetypes="ccccc" />
    <path
       sodipodi:nodetypes="cssc"
       id="path3341"
       d="M 18.593228,17.302578 C 20.189717,17.904028 21.717013,18.418815 23.651176,18.418815 C 25.214232,18.418815 26.646266,18.16849 27.592887,17.825814 C 28.066197,17.654477 28.407986,17.440053 28.569594,17.302578"
       style="opacity:0.15;fill:none;fill-opacity:0.10266161;fill-rule:nonzero;stroke:url(#radialGradient3710);stroke-width:1.11623669;stroke-linecap:round;stroke-linejoin:round;marker:none;marker-start:none;marker-mid:none;marker-end:none;stroke-miterlimit:4;stroke-dashoffset:0;stroke-opacity:1;visibility:visible;display:inline;overflow:visible;enable-background:accumulate" />
  </g>
</svg>
